G04 #@! TF.GenerationSoftware,KiCad,Pcbnew,(5.1.2)-2*
G04 #@! TF.CreationDate,2019-06-14T22:55:17+10:00*
G04 #@! TF.ProjectId,USBResetter,55534252-6573-4657-9474-65722e6b6963,rev?*
G04 #@! TF.SameCoordinates,Original*
G04 #@! TF.FileFunction,Copper,L1,Top*
G04 #@! TF.FilePolarity,Positive*
%FSLAX46Y46*%
G04 Gerber Fmt 4.6, Leading zero omitted, Abs format (unit mm)*
G04 Created by KiCad (PCBNEW (5.1.2)-2) date 2019-06-14 22:55:17*
%MOMM*%
%LPD*%
G04 APERTURE LIST*
%ADD10R,1.500000X1.500000*%
%ADD11C,1.500000*%
%ADD12C,3.000000*%
%ADD13O,1.700000X1.700000*%
%ADD14R,1.700000X1.700000*%
%ADD15R,0.900000X0.800000*%
%ADD16R,1.300000X0.700000*%
%ADD17R,0.700000X1.300000*%
%ADD18R,2.750000X1.000000*%
%ADD19R,1.200000X0.800000*%
%ADD20C,0.250000*%
%ADD21C,0.400000*%
%ADD22C,0.254000*%
G04 APERTURE END LIST*
D10*
X135550000Y-86600000D03*
X138850000Y-86600000D03*
X157650000Y-86600000D03*
X154350000Y-86600000D03*
D11*
X130600000Y-97910000D03*
X130600000Y-95370000D03*
X130600000Y-93340000D03*
X130600000Y-90800000D03*
D12*
X127930000Y-100960000D03*
X127930000Y-87240000D03*
D13*
X137200000Y-100940000D03*
D14*
X137200000Y-98400000D03*
D12*
X165070000Y-100960000D03*
X165070000Y-87240000D03*
D11*
X162400000Y-97400000D03*
X162400000Y-94860000D03*
X162400000Y-92830000D03*
X162400000Y-90290000D03*
D15*
X156200000Y-93200000D03*
X154200000Y-94150000D03*
X154200000Y-92250000D03*
D16*
X138400000Y-90250000D03*
X138400000Y-92150000D03*
X135200000Y-90250000D03*
X135200000Y-92150000D03*
D17*
X159350000Y-90000000D03*
X157450000Y-90000000D03*
X154050000Y-90000000D03*
X155950000Y-90000000D03*
X154050000Y-99400000D03*
X155950000Y-99400000D03*
D18*
X149480000Y-90600000D03*
X143720000Y-90600000D03*
X143720000Y-86600000D03*
X149480000Y-86600000D03*
D19*
X149800000Y-99470000D03*
X143800000Y-99470000D03*
X143800000Y-96930000D03*
X149800000Y-96930000D03*
D20*
X135200000Y-86950000D02*
X135550000Y-86600000D01*
X135200000Y-90250000D02*
X135200000Y-86950000D01*
D21*
X149870000Y-99400000D02*
X149800000Y-99470000D01*
X154050000Y-99400000D02*
X149870000Y-99400000D01*
X138850000Y-86600000D02*
X143720000Y-86600000D01*
X145495000Y-86600000D02*
X149480000Y-86600000D01*
X143720000Y-86600000D02*
X145495000Y-86600000D01*
X130600000Y-88600000D02*
X133850001Y-85349999D01*
X133850001Y-85349999D02*
X138749999Y-85349999D01*
X130600000Y-90800000D02*
X130600000Y-88600000D01*
X138850000Y-85450000D02*
X138850000Y-86600000D01*
X138749999Y-85349999D02*
X138850000Y-85450000D01*
X138349989Y-93450011D02*
X139568888Y-93450011D01*
X140000011Y-93018888D02*
X140000011Y-89950009D01*
X140000011Y-89950009D02*
X139450002Y-89400000D01*
X138275020Y-95875020D02*
X138275020Y-93524980D01*
X139568888Y-93450011D02*
X140000011Y-93018888D01*
X146159999Y-96029999D02*
X142799999Y-96029999D01*
X139450002Y-89400000D02*
X139400000Y-89400000D01*
X142699999Y-96129999D02*
X138529999Y-96129999D01*
X138529999Y-96129999D02*
X138275020Y-95875020D01*
X149600000Y-99470000D02*
X146159999Y-96029999D01*
X142799999Y-96029999D02*
X142699999Y-96129999D01*
X149800000Y-99470000D02*
X149600000Y-99470000D01*
X138275020Y-93524980D02*
X138349989Y-93450011D01*
X138850000Y-88850000D02*
X138850000Y-86600000D01*
X139400000Y-89400000D02*
X138850000Y-88850000D01*
X160400000Y-99400000D02*
X162400000Y-97400000D01*
X155950000Y-99400000D02*
X160400000Y-99400000D01*
X155950000Y-93450000D02*
X156200000Y-93200000D01*
X155950000Y-99400000D02*
X155950000Y-93450000D01*
X156200000Y-91800000D02*
X156600000Y-91400000D01*
X156200000Y-93200000D02*
X156200000Y-91800000D01*
X157650000Y-87850000D02*
X157650000Y-86600000D01*
X156600000Y-91400000D02*
X158000000Y-91400000D01*
X158000000Y-91400000D02*
X158400000Y-91000000D01*
X158400000Y-91000000D02*
X158400000Y-88600000D01*
X158400000Y-88600000D02*
X157650000Y-87850000D01*
X155950000Y-99100000D02*
X155950000Y-99400000D01*
X155099999Y-98249999D02*
X155950000Y-99100000D01*
X150319999Y-98249999D02*
X155099999Y-98249999D01*
X149800000Y-97730000D02*
X150319999Y-98249999D01*
X149800000Y-96930000D02*
X149800000Y-97730000D01*
D20*
X155350000Y-86600000D02*
X154350000Y-86600000D01*
X156850000Y-88100000D02*
X155350000Y-86600000D01*
X156850000Y-89100000D02*
X156850000Y-88100000D01*
X157450000Y-89700000D02*
X156850000Y-89100000D01*
X157450000Y-90000000D02*
X157450000Y-89700000D01*
X138670000Y-99470000D02*
X143800000Y-99470000D01*
X137200000Y-100940000D02*
X138670000Y-99470000D01*
X138100000Y-92150000D02*
X138400000Y-92150000D01*
X137200000Y-93050000D02*
X138100000Y-92150000D01*
X137200000Y-98400000D02*
X137200000Y-93050000D01*
X154200000Y-92050000D02*
X154200000Y-92250000D01*
X155950000Y-90000000D02*
X155950000Y-90300000D01*
X155950000Y-90300000D02*
X154200000Y-92050000D01*
X143800000Y-96930000D02*
X138430000Y-96930000D01*
X138430000Y-96930000D02*
X137650010Y-96150010D01*
X137650010Y-96150010D02*
X137650010Y-93236400D01*
X137663600Y-93236400D02*
X138074999Y-92825001D01*
X137650010Y-93236400D02*
X137663600Y-93236400D01*
X139310001Y-92825001D02*
X139375001Y-92760001D01*
X138074999Y-92825001D02*
X139310001Y-92825001D01*
X139375001Y-91539999D02*
X139235002Y-91400000D01*
X139375001Y-92760001D02*
X139375001Y-91539999D01*
X138400000Y-90850000D02*
X138400000Y-90250000D01*
X138950000Y-91400000D02*
X138400000Y-90850000D01*
X139235002Y-91400000D02*
X138950000Y-91400000D01*
X154050000Y-90000000D02*
X152600000Y-90000000D01*
X152000000Y-90600000D02*
X149480000Y-90600000D01*
X152600000Y-90000000D02*
X152000000Y-90600000D01*
X145345000Y-90600000D02*
X149480000Y-90600000D01*
X143720000Y-90600000D02*
X145345000Y-90600000D01*
D22*
G36*
X133256710Y-84756708D02*
G01*
X133230560Y-84788572D01*
X130038574Y-87980559D01*
X130006710Y-88006709D01*
X129980562Y-88038571D01*
X129902364Y-88133855D01*
X129824828Y-88278914D01*
X129777082Y-88436312D01*
X129760960Y-88600000D01*
X129765001Y-88641028D01*
X129765001Y-89692204D01*
X129717114Y-89724201D01*
X129524201Y-89917114D01*
X129372629Y-90143957D01*
X129268225Y-90396011D01*
X129215000Y-90663589D01*
X129215000Y-90936411D01*
X129268225Y-91203989D01*
X129372629Y-91456043D01*
X129524201Y-91682886D01*
X129717114Y-91875799D01*
X129943957Y-92027371D01*
X130046873Y-92070000D01*
X129943957Y-92112629D01*
X129717114Y-92264201D01*
X129524201Y-92457114D01*
X129372629Y-92683957D01*
X129268225Y-92936011D01*
X129215000Y-93203589D01*
X129215000Y-93476411D01*
X129268225Y-93743989D01*
X129372629Y-93996043D01*
X129524201Y-94222886D01*
X129656315Y-94355000D01*
X129524201Y-94487114D01*
X129372629Y-94713957D01*
X129268225Y-94966011D01*
X129215000Y-95233589D01*
X129215000Y-95506411D01*
X129268225Y-95773989D01*
X129372629Y-96026043D01*
X129524201Y-96252886D01*
X129717114Y-96445799D01*
X129943957Y-96597371D01*
X130043279Y-96638511D01*
X130001168Y-96653723D01*
X129888137Y-96714140D01*
X129822612Y-96953007D01*
X130600000Y-97730395D01*
X131377388Y-96953007D01*
X131311863Y-96714140D01*
X131153523Y-96639836D01*
X131256043Y-96597371D01*
X131482886Y-96445799D01*
X131675799Y-96252886D01*
X131827371Y-96026043D01*
X131931775Y-95773989D01*
X131985000Y-95506411D01*
X131985000Y-95233589D01*
X131931775Y-94966011D01*
X131827371Y-94713957D01*
X131675799Y-94487114D01*
X131543685Y-94355000D01*
X131675799Y-94222886D01*
X131827371Y-93996043D01*
X131931775Y-93743989D01*
X131985000Y-93476411D01*
X131985000Y-93203589D01*
X131931775Y-92936011D01*
X131827371Y-92683957D01*
X131704455Y-92500000D01*
X133911928Y-92500000D01*
X133924188Y-92624482D01*
X133960498Y-92744180D01*
X134019463Y-92854494D01*
X134098815Y-92951185D01*
X134195506Y-93030537D01*
X134305820Y-93089502D01*
X134425518Y-93125812D01*
X134550000Y-93138072D01*
X134914250Y-93135000D01*
X135073000Y-92976250D01*
X135073000Y-92277000D01*
X135327000Y-92277000D01*
X135327000Y-92976250D01*
X135485750Y-93135000D01*
X135850000Y-93138072D01*
X135974482Y-93125812D01*
X136094180Y-93089502D01*
X136204494Y-93030537D01*
X136301185Y-92951185D01*
X136380537Y-92854494D01*
X136439502Y-92744180D01*
X136475812Y-92624482D01*
X136488072Y-92500000D01*
X136485000Y-92435750D01*
X136326250Y-92277000D01*
X135327000Y-92277000D01*
X135073000Y-92277000D01*
X134073750Y-92277000D01*
X133915000Y-92435750D01*
X133911928Y-92500000D01*
X131704455Y-92500000D01*
X131675799Y-92457114D01*
X131482886Y-92264201D01*
X131256043Y-92112629D01*
X131153127Y-92070000D01*
X131256043Y-92027371D01*
X131482886Y-91875799D01*
X131675799Y-91682886D01*
X131827371Y-91456043D01*
X131931775Y-91203989D01*
X131985000Y-90936411D01*
X131985000Y-90663589D01*
X131931775Y-90396011D01*
X131827371Y-90143957D01*
X131675799Y-89917114D01*
X131482886Y-89724201D01*
X131435000Y-89692205D01*
X131435000Y-88945867D01*
X134161928Y-86218940D01*
X134161928Y-87350000D01*
X134174188Y-87474482D01*
X134210498Y-87594180D01*
X134269463Y-87704494D01*
X134348815Y-87801185D01*
X134440001Y-87876019D01*
X134440000Y-89272762D01*
X134425518Y-89274188D01*
X134305820Y-89310498D01*
X134195506Y-89369463D01*
X134098815Y-89448815D01*
X134019463Y-89545506D01*
X133960498Y-89655820D01*
X133924188Y-89775518D01*
X133911928Y-89900000D01*
X133911928Y-90600000D01*
X133924188Y-90724482D01*
X133960498Y-90844180D01*
X134019463Y-90954494D01*
X134098815Y-91051185D01*
X134195506Y-91130537D01*
X134305820Y-91189502D01*
X134340427Y-91200000D01*
X134305820Y-91210498D01*
X134195506Y-91269463D01*
X134098815Y-91348815D01*
X134019463Y-91445506D01*
X133960498Y-91555820D01*
X133924188Y-91675518D01*
X133911928Y-91800000D01*
X133915000Y-91864250D01*
X134073750Y-92023000D01*
X135073000Y-92023000D01*
X135073000Y-92003000D01*
X135327000Y-92003000D01*
X135327000Y-92023000D01*
X136326250Y-92023000D01*
X136485000Y-91864250D01*
X136488072Y-91800000D01*
X136475812Y-91675518D01*
X136439502Y-91555820D01*
X136380537Y-91445506D01*
X136301185Y-91348815D01*
X136204494Y-91269463D01*
X136094180Y-91210498D01*
X136059573Y-91200000D01*
X136094180Y-91189502D01*
X136204494Y-91130537D01*
X136301185Y-91051185D01*
X136380537Y-90954494D01*
X136439502Y-90844180D01*
X136475812Y-90724482D01*
X136488072Y-90600000D01*
X136488072Y-89900000D01*
X136475812Y-89775518D01*
X136439502Y-89655820D01*
X136380537Y-89545506D01*
X136301185Y-89448815D01*
X136204494Y-89369463D01*
X136094180Y-89310498D01*
X135974482Y-89274188D01*
X135960000Y-89272762D01*
X135960000Y-87988072D01*
X136300000Y-87988072D01*
X136424482Y-87975812D01*
X136544180Y-87939502D01*
X136654494Y-87880537D01*
X136751185Y-87801185D01*
X136830537Y-87704494D01*
X136889502Y-87594180D01*
X136925812Y-87474482D01*
X136938072Y-87350000D01*
X136938072Y-86184999D01*
X137461928Y-86184999D01*
X137461928Y-87350000D01*
X137474188Y-87474482D01*
X137510498Y-87594180D01*
X137569463Y-87704494D01*
X137648815Y-87801185D01*
X137745506Y-87880537D01*
X137855820Y-87939502D01*
X137975518Y-87975812D01*
X138015000Y-87979701D01*
X138015000Y-88808981D01*
X138010960Y-88850000D01*
X138015000Y-88891018D01*
X138027082Y-89013688D01*
X138074828Y-89171086D01*
X138123384Y-89261928D01*
X137750000Y-89261928D01*
X137625518Y-89274188D01*
X137505820Y-89310498D01*
X137395506Y-89369463D01*
X137298815Y-89448815D01*
X137219463Y-89545506D01*
X137160498Y-89655820D01*
X137124188Y-89775518D01*
X137111928Y-89900000D01*
X137111928Y-90600000D01*
X137124188Y-90724482D01*
X137160498Y-90844180D01*
X137219463Y-90954494D01*
X137298815Y-91051185D01*
X137395506Y-91130537D01*
X137505820Y-91189502D01*
X137540427Y-91200000D01*
X137505820Y-91210498D01*
X137395506Y-91269463D01*
X137298815Y-91348815D01*
X137219463Y-91445506D01*
X137160498Y-91555820D01*
X137124188Y-91675518D01*
X137111928Y-91800000D01*
X137111928Y-92063271D01*
X136688998Y-92486201D01*
X136660000Y-92509999D01*
X136636202Y-92538997D01*
X136636201Y-92538998D01*
X136565026Y-92625724D01*
X136494454Y-92757754D01*
X136465109Y-92854494D01*
X136454773Y-92888571D01*
X136450998Y-92901015D01*
X136436324Y-93050000D01*
X136440001Y-93087332D01*
X136440000Y-96911928D01*
X136350000Y-96911928D01*
X136225518Y-96924188D01*
X136105820Y-96960498D01*
X135995506Y-97019463D01*
X135898815Y-97098815D01*
X135819463Y-97195506D01*
X135760498Y-97305820D01*
X135724188Y-97425518D01*
X135711928Y-97550000D01*
X135711928Y-99250000D01*
X135724188Y-99374482D01*
X135760498Y-99494180D01*
X135819463Y-99604494D01*
X135898815Y-99701185D01*
X135995506Y-99780537D01*
X136105820Y-99839502D01*
X136174687Y-99860393D01*
X136144866Y-99884866D01*
X135959294Y-100110986D01*
X135821401Y-100368966D01*
X135736487Y-100648889D01*
X135707815Y-100940000D01*
X135736487Y-101231111D01*
X135821401Y-101511034D01*
X135959294Y-101769014D01*
X136144866Y-101995134D01*
X136370986Y-102180706D01*
X136628966Y-102318599D01*
X136908889Y-102403513D01*
X137127050Y-102425000D01*
X137272950Y-102425000D01*
X137491111Y-102403513D01*
X137771034Y-102318599D01*
X138029014Y-102180706D01*
X138255134Y-101995134D01*
X138440706Y-101769014D01*
X138578599Y-101511034D01*
X138663513Y-101231111D01*
X138685997Y-101002824D01*
X162925098Y-101002824D01*
X162974666Y-101420451D01*
X163104757Y-101820383D01*
X163262786Y-102116038D01*
X163578347Y-102272048D01*
X164890395Y-100960000D01*
X163578347Y-99647952D01*
X163262786Y-99803962D01*
X163071980Y-100178745D01*
X162957956Y-100583551D01*
X162925098Y-101002824D01*
X138685997Y-101002824D01*
X138692185Y-100940000D01*
X138663513Y-100648889D01*
X138640797Y-100574005D01*
X138984802Y-100230000D01*
X142673982Y-100230000D01*
X142748815Y-100321185D01*
X142845506Y-100400537D01*
X142955820Y-100459502D01*
X143075518Y-100495812D01*
X143200000Y-100508072D01*
X144400000Y-100508072D01*
X144524482Y-100495812D01*
X144644180Y-100459502D01*
X144754494Y-100400537D01*
X144851185Y-100321185D01*
X144930537Y-100224494D01*
X144989502Y-100114180D01*
X145025812Y-99994482D01*
X145038072Y-99870000D01*
X145038072Y-99070000D01*
X145025812Y-98945518D01*
X144989502Y-98825820D01*
X144930537Y-98715506D01*
X144851185Y-98618815D01*
X144754494Y-98539463D01*
X144644180Y-98480498D01*
X144524482Y-98444188D01*
X144400000Y-98431928D01*
X143200000Y-98431928D01*
X143075518Y-98444188D01*
X142955820Y-98480498D01*
X142845506Y-98539463D01*
X142748815Y-98618815D01*
X142673982Y-98710000D01*
X138707323Y-98710000D01*
X138688072Y-98708104D01*
X138688072Y-97690000D01*
X142673982Y-97690000D01*
X142748815Y-97781185D01*
X142845506Y-97860537D01*
X142955820Y-97919502D01*
X143075518Y-97955812D01*
X143200000Y-97968072D01*
X144400000Y-97968072D01*
X144524482Y-97955812D01*
X144644180Y-97919502D01*
X144754494Y-97860537D01*
X144851185Y-97781185D01*
X144930537Y-97684494D01*
X144989502Y-97574180D01*
X145025812Y-97454482D01*
X145038072Y-97330000D01*
X145038072Y-96864999D01*
X145814132Y-96864999D01*
X148561928Y-99612796D01*
X148561928Y-99870000D01*
X148574188Y-99994482D01*
X148610498Y-100114180D01*
X148669463Y-100224494D01*
X148748815Y-100321185D01*
X148845506Y-100400537D01*
X148955820Y-100459502D01*
X149075518Y-100495812D01*
X149200000Y-100508072D01*
X150400000Y-100508072D01*
X150524482Y-100495812D01*
X150644180Y-100459502D01*
X150754494Y-100400537D01*
X150851185Y-100321185D01*
X150921915Y-100235000D01*
X153092546Y-100235000D01*
X153110498Y-100294180D01*
X153169463Y-100404494D01*
X153248815Y-100501185D01*
X153345506Y-100580537D01*
X153455820Y-100639502D01*
X153575518Y-100675812D01*
X153700000Y-100688072D01*
X154400000Y-100688072D01*
X154524482Y-100675812D01*
X154644180Y-100639502D01*
X154754494Y-100580537D01*
X154851185Y-100501185D01*
X154930537Y-100404494D01*
X154989502Y-100294180D01*
X155000000Y-100259573D01*
X155010498Y-100294180D01*
X155069463Y-100404494D01*
X155148815Y-100501185D01*
X155245506Y-100580537D01*
X155355820Y-100639502D01*
X155475518Y-100675812D01*
X155600000Y-100688072D01*
X156300000Y-100688072D01*
X156424482Y-100675812D01*
X156544180Y-100639502D01*
X156654494Y-100580537D01*
X156751185Y-100501185D01*
X156830537Y-100404494D01*
X156889502Y-100294180D01*
X156907454Y-100235000D01*
X160358982Y-100235000D01*
X160400000Y-100239040D01*
X160441018Y-100235000D01*
X160441019Y-100235000D01*
X160563689Y-100222918D01*
X160721087Y-100175172D01*
X160866146Y-100097636D01*
X160993291Y-99993291D01*
X161019446Y-99961421D01*
X161512520Y-99468347D01*
X163757952Y-99468347D01*
X165070000Y-100780395D01*
X166382048Y-99468347D01*
X166226038Y-99152786D01*
X165851255Y-98961980D01*
X165446449Y-98847956D01*
X165027176Y-98815098D01*
X164609549Y-98864666D01*
X164209617Y-98994757D01*
X163913962Y-99152786D01*
X163757952Y-99468347D01*
X161512520Y-99468347D01*
X162207103Y-98773764D01*
X162263589Y-98785000D01*
X162536411Y-98785000D01*
X162803989Y-98731775D01*
X163056043Y-98627371D01*
X163282886Y-98475799D01*
X163475799Y-98282886D01*
X163627371Y-98056043D01*
X163731775Y-97803989D01*
X163785000Y-97536411D01*
X163785000Y-97263589D01*
X163731775Y-96996011D01*
X163627371Y-96743957D01*
X163475799Y-96517114D01*
X163282886Y-96324201D01*
X163056043Y-96172629D01*
X162953127Y-96130000D01*
X163056043Y-96087371D01*
X163282886Y-95935799D01*
X163475799Y-95742886D01*
X163627371Y-95516043D01*
X163731775Y-95263989D01*
X163785000Y-94996411D01*
X163785000Y-94723589D01*
X163731775Y-94456011D01*
X163627371Y-94203957D01*
X163475799Y-93977114D01*
X163343685Y-93845000D01*
X163475799Y-93712886D01*
X163627371Y-93486043D01*
X163731775Y-93233989D01*
X163785000Y-92966411D01*
X163785000Y-92693589D01*
X163731775Y-92426011D01*
X163627371Y-92173957D01*
X163475799Y-91947114D01*
X163282886Y-91754201D01*
X163056043Y-91602629D01*
X162956721Y-91561489D01*
X162998832Y-91546277D01*
X163111863Y-91485860D01*
X163177388Y-91246993D01*
X162400000Y-90469605D01*
X161622612Y-91246993D01*
X161688137Y-91485860D01*
X161846477Y-91560164D01*
X161743957Y-91602629D01*
X161517114Y-91754201D01*
X161324201Y-91947114D01*
X161172629Y-92173957D01*
X161068225Y-92426011D01*
X161015000Y-92693589D01*
X161015000Y-92966411D01*
X161068225Y-93233989D01*
X161172629Y-93486043D01*
X161324201Y-93712886D01*
X161456315Y-93845000D01*
X161324201Y-93977114D01*
X161172629Y-94203957D01*
X161068225Y-94456011D01*
X161015000Y-94723589D01*
X161015000Y-94996411D01*
X161068225Y-95263989D01*
X161172629Y-95516043D01*
X161324201Y-95742886D01*
X161517114Y-95935799D01*
X161743957Y-96087371D01*
X161846873Y-96130000D01*
X161743957Y-96172629D01*
X161517114Y-96324201D01*
X161324201Y-96517114D01*
X161172629Y-96743957D01*
X161068225Y-96996011D01*
X161015000Y-97263589D01*
X161015000Y-97536411D01*
X161026236Y-97592897D01*
X160054133Y-98565000D01*
X156907454Y-98565000D01*
X156889502Y-98505820D01*
X156830537Y-98395506D01*
X156785000Y-98340019D01*
X156785000Y-94222621D01*
X156894180Y-94189502D01*
X157004494Y-94130537D01*
X157101185Y-94051185D01*
X157180537Y-93954494D01*
X157239502Y-93844180D01*
X157275812Y-93724482D01*
X157288072Y-93600000D01*
X157288072Y-92800000D01*
X157275812Y-92675518D01*
X157239502Y-92555820D01*
X157180537Y-92445506D01*
X157101185Y-92348815D01*
X157035000Y-92294499D01*
X157035000Y-92235000D01*
X157958982Y-92235000D01*
X158000000Y-92239040D01*
X158041018Y-92235000D01*
X158041019Y-92235000D01*
X158163689Y-92222918D01*
X158321087Y-92175172D01*
X158466146Y-92097636D01*
X158593291Y-91993291D01*
X158619446Y-91961421D01*
X158961422Y-91619445D01*
X158993291Y-91593291D01*
X159097636Y-91466146D01*
X159175172Y-91321087D01*
X159222918Y-91163689D01*
X159235000Y-91041019D01*
X159235000Y-91041009D01*
X159239039Y-91000001D01*
X159235000Y-90958993D01*
X159235000Y-90127000D01*
X159477000Y-90127000D01*
X159477000Y-91126250D01*
X159635750Y-91285000D01*
X159700000Y-91288072D01*
X159824482Y-91275812D01*
X159944180Y-91239502D01*
X160054494Y-91180537D01*
X160151185Y-91101185D01*
X160230537Y-91004494D01*
X160289502Y-90894180D01*
X160325812Y-90774482D01*
X160338072Y-90650000D01*
X160335648Y-90362492D01*
X161010188Y-90362492D01*
X161051035Y-90632238D01*
X161143723Y-90888832D01*
X161204140Y-91001863D01*
X161443007Y-91067388D01*
X162220395Y-90290000D01*
X162579605Y-90290000D01*
X163356993Y-91067388D01*
X163595860Y-91001863D01*
X163711760Y-90754884D01*
X163777250Y-90490040D01*
X163789812Y-90217508D01*
X163748965Y-89947762D01*
X163656277Y-89691168D01*
X163595860Y-89578137D01*
X163356993Y-89512612D01*
X162579605Y-90290000D01*
X162220395Y-90290000D01*
X161443007Y-89512612D01*
X161204140Y-89578137D01*
X161088240Y-89825116D01*
X161022750Y-90089960D01*
X161010188Y-90362492D01*
X160335648Y-90362492D01*
X160335000Y-90285750D01*
X160176250Y-90127000D01*
X159477000Y-90127000D01*
X159235000Y-90127000D01*
X159235000Y-88873750D01*
X159477000Y-88873750D01*
X159477000Y-89873000D01*
X160176250Y-89873000D01*
X160335000Y-89714250D01*
X160338072Y-89350000D01*
X160336399Y-89333007D01*
X161622612Y-89333007D01*
X162400000Y-90110395D01*
X163177388Y-89333007D01*
X163111863Y-89094140D01*
X162864884Y-88978240D01*
X162600040Y-88912750D01*
X162327508Y-88900188D01*
X162057762Y-88941035D01*
X161801168Y-89033723D01*
X161688137Y-89094140D01*
X161622612Y-89333007D01*
X160336399Y-89333007D01*
X160325812Y-89225518D01*
X160289502Y-89105820D01*
X160230537Y-88995506D01*
X160151185Y-88898815D01*
X160054494Y-88819463D01*
X159944180Y-88760498D01*
X159849091Y-88731653D01*
X163757952Y-88731653D01*
X163913962Y-89047214D01*
X164288745Y-89238020D01*
X164693551Y-89352044D01*
X165112824Y-89384902D01*
X165530451Y-89335334D01*
X165930383Y-89205243D01*
X166226038Y-89047214D01*
X166382048Y-88731653D01*
X165070000Y-87419605D01*
X163757952Y-88731653D01*
X159849091Y-88731653D01*
X159824482Y-88724188D01*
X159700000Y-88711928D01*
X159635750Y-88715000D01*
X159477000Y-88873750D01*
X159235000Y-88873750D01*
X159235000Y-88641018D01*
X159239040Y-88599999D01*
X159222918Y-88436311D01*
X159175172Y-88278913D01*
X159097636Y-88133854D01*
X159069852Y-88099999D01*
X158993291Y-88006709D01*
X158961426Y-87980558D01*
X158813214Y-87832347D01*
X158851185Y-87801185D01*
X158930537Y-87704494D01*
X158989502Y-87594180D01*
X159025812Y-87474482D01*
X159038072Y-87350000D01*
X159038072Y-87282824D01*
X162925098Y-87282824D01*
X162974666Y-87700451D01*
X163104757Y-88100383D01*
X163262786Y-88396038D01*
X163578347Y-88552048D01*
X164890395Y-87240000D01*
X165249605Y-87240000D01*
X166561653Y-88552048D01*
X166877214Y-88396038D01*
X167068020Y-88021255D01*
X167182044Y-87616449D01*
X167214902Y-87197176D01*
X167165334Y-86779549D01*
X167035243Y-86379617D01*
X166877214Y-86083962D01*
X166561653Y-85927952D01*
X165249605Y-87240000D01*
X164890395Y-87240000D01*
X163578347Y-85927952D01*
X163262786Y-86083962D01*
X163071980Y-86458745D01*
X162957956Y-86863551D01*
X162925098Y-87282824D01*
X159038072Y-87282824D01*
X159038072Y-85850000D01*
X159028061Y-85748347D01*
X163757952Y-85748347D01*
X165070000Y-87060395D01*
X166382048Y-85748347D01*
X166226038Y-85432786D01*
X165851255Y-85241980D01*
X165446449Y-85127956D01*
X165027176Y-85095098D01*
X164609549Y-85144666D01*
X164209617Y-85274757D01*
X163913962Y-85432786D01*
X163757952Y-85748347D01*
X159028061Y-85748347D01*
X159025812Y-85725518D01*
X158989502Y-85605820D01*
X158930537Y-85495506D01*
X158851185Y-85398815D01*
X158754494Y-85319463D01*
X158644180Y-85260498D01*
X158524482Y-85224188D01*
X158400000Y-85211928D01*
X156900000Y-85211928D01*
X156775518Y-85224188D01*
X156655820Y-85260498D01*
X156545506Y-85319463D01*
X156448815Y-85398815D01*
X156369463Y-85495506D01*
X156310498Y-85605820D01*
X156274188Y-85725518D01*
X156261928Y-85850000D01*
X156261928Y-86437127D01*
X155913804Y-86089003D01*
X155890001Y-86059999D01*
X155774276Y-85965026D01*
X155738072Y-85945674D01*
X155738072Y-85850000D01*
X155725812Y-85725518D01*
X155689502Y-85605820D01*
X155630537Y-85495506D01*
X155551185Y-85398815D01*
X155454494Y-85319463D01*
X155344180Y-85260498D01*
X155224482Y-85224188D01*
X155100000Y-85211928D01*
X153600000Y-85211928D01*
X153475518Y-85224188D01*
X153355820Y-85260498D01*
X153245506Y-85319463D01*
X153148815Y-85398815D01*
X153069463Y-85495506D01*
X153010498Y-85605820D01*
X152974188Y-85725518D01*
X152961928Y-85850000D01*
X152961928Y-87350000D01*
X152974188Y-87474482D01*
X153010498Y-87594180D01*
X153069463Y-87704494D01*
X153148815Y-87801185D01*
X153245506Y-87880537D01*
X153355820Y-87939502D01*
X153475518Y-87975812D01*
X153600000Y-87988072D01*
X155100000Y-87988072D01*
X155224482Y-87975812D01*
X155344180Y-87939502D01*
X155454494Y-87880537D01*
X155510101Y-87834902D01*
X156090001Y-88414803D01*
X156090000Y-88711928D01*
X155600000Y-88711928D01*
X155475518Y-88724188D01*
X155355820Y-88760498D01*
X155245506Y-88819463D01*
X155148815Y-88898815D01*
X155069463Y-88995506D01*
X155010498Y-89105820D01*
X155000000Y-89140427D01*
X154989502Y-89105820D01*
X154930537Y-88995506D01*
X154851185Y-88898815D01*
X154754494Y-88819463D01*
X154644180Y-88760498D01*
X154524482Y-88724188D01*
X154400000Y-88711928D01*
X153700000Y-88711928D01*
X153575518Y-88724188D01*
X153455820Y-88760498D01*
X153345506Y-88819463D01*
X153248815Y-88898815D01*
X153169463Y-88995506D01*
X153110498Y-89105820D01*
X153074188Y-89225518D01*
X153072762Y-89240000D01*
X152637322Y-89240000D01*
X152599999Y-89236324D01*
X152562676Y-89240000D01*
X152562667Y-89240000D01*
X152451014Y-89250997D01*
X152307753Y-89294454D01*
X152175723Y-89365026D01*
X152114830Y-89415000D01*
X152059999Y-89459999D01*
X152036200Y-89488998D01*
X151685199Y-89840000D01*
X151436046Y-89840000D01*
X151385537Y-89745506D01*
X151306185Y-89648815D01*
X151209494Y-89569463D01*
X151099180Y-89510498D01*
X150979482Y-89474188D01*
X150855000Y-89461928D01*
X148105000Y-89461928D01*
X147980518Y-89474188D01*
X147860820Y-89510498D01*
X147750506Y-89569463D01*
X147653815Y-89648815D01*
X147574463Y-89745506D01*
X147523954Y-89840000D01*
X145676046Y-89840000D01*
X145625537Y-89745506D01*
X145546185Y-89648815D01*
X145449494Y-89569463D01*
X145339180Y-89510498D01*
X145219482Y-89474188D01*
X145095000Y-89461928D01*
X142345000Y-89461928D01*
X142220518Y-89474188D01*
X142100820Y-89510498D01*
X141990506Y-89569463D01*
X141893815Y-89648815D01*
X141814463Y-89745506D01*
X141755498Y-89855820D01*
X141719188Y-89975518D01*
X141706928Y-90100000D01*
X141706928Y-91100000D01*
X141719188Y-91224482D01*
X141755498Y-91344180D01*
X141814463Y-91454494D01*
X141893815Y-91551185D01*
X141990506Y-91630537D01*
X142100820Y-91689502D01*
X142220518Y-91725812D01*
X142345000Y-91738072D01*
X145095000Y-91738072D01*
X145219482Y-91725812D01*
X145339180Y-91689502D01*
X145449494Y-91630537D01*
X145546185Y-91551185D01*
X145625537Y-91454494D01*
X145676046Y-91360000D01*
X147523954Y-91360000D01*
X147574463Y-91454494D01*
X147653815Y-91551185D01*
X147750506Y-91630537D01*
X147860820Y-91689502D01*
X147980518Y-91725812D01*
X148105000Y-91738072D01*
X150855000Y-91738072D01*
X150979482Y-91725812D01*
X151099180Y-91689502D01*
X151209494Y-91630537D01*
X151306185Y-91551185D01*
X151385537Y-91454494D01*
X151436046Y-91360000D01*
X151962678Y-91360000D01*
X152000000Y-91363676D01*
X152037322Y-91360000D01*
X152037333Y-91360000D01*
X152148986Y-91349003D01*
X152292247Y-91305546D01*
X152424276Y-91234974D01*
X152540001Y-91140001D01*
X152563803Y-91110998D01*
X152914802Y-90760000D01*
X153072762Y-90760000D01*
X153074188Y-90774482D01*
X153110498Y-90894180D01*
X153169463Y-91004494D01*
X153248815Y-91101185D01*
X153345506Y-91180537D01*
X153455820Y-91239502D01*
X153515427Y-91257584D01*
X153505820Y-91260498D01*
X153395506Y-91319463D01*
X153298815Y-91398815D01*
X153219463Y-91495506D01*
X153160498Y-91605820D01*
X153124188Y-91725518D01*
X153111928Y-91850000D01*
X153111928Y-92650000D01*
X153124188Y-92774482D01*
X153160498Y-92894180D01*
X153219463Y-93004494D01*
X153298815Y-93101185D01*
X153395506Y-93180537D01*
X153431918Y-93200000D01*
X153395506Y-93219463D01*
X153298815Y-93298815D01*
X153219463Y-93395506D01*
X153160498Y-93505820D01*
X153124188Y-93625518D01*
X153111928Y-93750000D01*
X153115000Y-93864250D01*
X153273750Y-94023000D01*
X154073000Y-94023000D01*
X154073000Y-94003000D01*
X154327000Y-94003000D01*
X154327000Y-94023000D01*
X154347000Y-94023000D01*
X154347000Y-94277000D01*
X154327000Y-94277000D01*
X154327000Y-95026250D01*
X154485750Y-95185000D01*
X154650000Y-95188072D01*
X154774482Y-95175812D01*
X154894180Y-95139502D01*
X155004494Y-95080537D01*
X155101185Y-95001185D01*
X155115001Y-94984350D01*
X155115000Y-97412437D01*
X155099999Y-97410959D01*
X155058981Y-97414999D01*
X151029701Y-97414999D01*
X151038072Y-97330000D01*
X151038072Y-96530000D01*
X151025812Y-96405518D01*
X150989502Y-96285820D01*
X150930537Y-96175506D01*
X150851185Y-96078815D01*
X150754494Y-95999463D01*
X150644180Y-95940498D01*
X150524482Y-95904188D01*
X150400000Y-95891928D01*
X149200000Y-95891928D01*
X149075518Y-95904188D01*
X148955820Y-95940498D01*
X148845506Y-95999463D01*
X148748815Y-96078815D01*
X148669463Y-96175506D01*
X148610498Y-96285820D01*
X148574188Y-96405518D01*
X148561928Y-96530000D01*
X148561928Y-97251060D01*
X146779445Y-95468578D01*
X146753290Y-95436708D01*
X146626145Y-95332363D01*
X146481086Y-95254827D01*
X146323688Y-95207081D01*
X146201018Y-95194999D01*
X146201017Y-95194999D01*
X146159999Y-95190959D01*
X146118981Y-95194999D01*
X142841006Y-95194999D01*
X142799998Y-95190960D01*
X142758990Y-95194999D01*
X142758980Y-95194999D01*
X142636310Y-95207081D01*
X142478912Y-95254827D01*
X142403756Y-95294999D01*
X139110020Y-95294999D01*
X139110020Y-94550000D01*
X153111928Y-94550000D01*
X153124188Y-94674482D01*
X153160498Y-94794180D01*
X153219463Y-94904494D01*
X153298815Y-95001185D01*
X153395506Y-95080537D01*
X153505820Y-95139502D01*
X153625518Y-95175812D01*
X153750000Y-95188072D01*
X153914250Y-95185000D01*
X154073000Y-95026250D01*
X154073000Y-94277000D01*
X153273750Y-94277000D01*
X153115000Y-94435750D01*
X153111928Y-94550000D01*
X139110020Y-94550000D01*
X139110020Y-94285011D01*
X139527870Y-94285011D01*
X139568888Y-94289051D01*
X139609906Y-94285011D01*
X139609907Y-94285011D01*
X139732577Y-94272929D01*
X139889975Y-94225183D01*
X140035034Y-94147647D01*
X140162179Y-94043302D01*
X140188334Y-94011432D01*
X140561433Y-93638333D01*
X140593302Y-93612179D01*
X140697647Y-93485034D01*
X140775183Y-93339975D01*
X140822929Y-93182577D01*
X140835011Y-93059907D01*
X140835011Y-93059906D01*
X140839051Y-93018888D01*
X140835011Y-92977870D01*
X140835011Y-89991027D01*
X140839051Y-89950008D01*
X140822929Y-89786320D01*
X140775183Y-89628922D01*
X140697647Y-89483863D01*
X140678062Y-89459999D01*
X140593302Y-89356718D01*
X140561432Y-89330563D01*
X140069448Y-88838579D01*
X140043293Y-88806709D01*
X139916148Y-88702364D01*
X139845433Y-88664566D01*
X139685000Y-88504133D01*
X139685000Y-87979701D01*
X139724482Y-87975812D01*
X139844180Y-87939502D01*
X139954494Y-87880537D01*
X140051185Y-87801185D01*
X140130537Y-87704494D01*
X140189502Y-87594180D01*
X140225812Y-87474482D01*
X140229701Y-87435000D01*
X141804043Y-87435000D01*
X141814463Y-87454494D01*
X141893815Y-87551185D01*
X141990506Y-87630537D01*
X142100820Y-87689502D01*
X142220518Y-87725812D01*
X142345000Y-87738072D01*
X145095000Y-87738072D01*
X145219482Y-87725812D01*
X145339180Y-87689502D01*
X145449494Y-87630537D01*
X145546185Y-87551185D01*
X145625537Y-87454494D01*
X145635957Y-87435000D01*
X147564043Y-87435000D01*
X147574463Y-87454494D01*
X147653815Y-87551185D01*
X147750506Y-87630537D01*
X147860820Y-87689502D01*
X147980518Y-87725812D01*
X148105000Y-87738072D01*
X150855000Y-87738072D01*
X150979482Y-87725812D01*
X151099180Y-87689502D01*
X151209494Y-87630537D01*
X151306185Y-87551185D01*
X151385537Y-87454494D01*
X151444502Y-87344180D01*
X151480812Y-87224482D01*
X151493072Y-87100000D01*
X151493072Y-86100000D01*
X151480812Y-85975518D01*
X151444502Y-85855820D01*
X151385537Y-85745506D01*
X151306185Y-85648815D01*
X151209494Y-85569463D01*
X151099180Y-85510498D01*
X150979482Y-85474188D01*
X150855000Y-85461928D01*
X148105000Y-85461928D01*
X147980518Y-85474188D01*
X147860820Y-85510498D01*
X147750506Y-85569463D01*
X147653815Y-85648815D01*
X147574463Y-85745506D01*
X147564043Y-85765000D01*
X145635957Y-85765000D01*
X145625537Y-85745506D01*
X145546185Y-85648815D01*
X145449494Y-85569463D01*
X145339180Y-85510498D01*
X145219482Y-85474188D01*
X145095000Y-85461928D01*
X142345000Y-85461928D01*
X142220518Y-85474188D01*
X142100820Y-85510498D01*
X141990506Y-85569463D01*
X141893815Y-85648815D01*
X141814463Y-85745506D01*
X141804043Y-85765000D01*
X140229701Y-85765000D01*
X140225812Y-85725518D01*
X140189502Y-85605820D01*
X140130537Y-85495506D01*
X140051185Y-85398815D01*
X139954494Y-85319463D01*
X139844180Y-85260498D01*
X139724482Y-85224188D01*
X139651905Y-85217040D01*
X139625172Y-85128913D01*
X139547636Y-84983854D01*
X139443291Y-84856709D01*
X139411426Y-84830558D01*
X139369443Y-84788576D01*
X139343290Y-84756708D01*
X139225451Y-84660000D01*
X167333368Y-84660000D01*
X167174223Y-100574441D01*
X167165334Y-100499549D01*
X167035243Y-100099617D01*
X166877214Y-99803962D01*
X166561653Y-99647952D01*
X165249605Y-100960000D01*
X166561653Y-102272048D01*
X166877214Y-102116038D01*
X167068020Y-101741255D01*
X167166034Y-101393286D01*
X167146567Y-103340000D01*
X125660000Y-103340000D01*
X125660000Y-102451653D01*
X126617952Y-102451653D01*
X126773962Y-102767214D01*
X127148745Y-102958020D01*
X127553551Y-103072044D01*
X127972824Y-103104902D01*
X128390451Y-103055334D01*
X128790383Y-102925243D01*
X129086038Y-102767214D01*
X129242048Y-102451653D01*
X163757952Y-102451653D01*
X163913962Y-102767214D01*
X164288745Y-102958020D01*
X164693551Y-103072044D01*
X165112824Y-103104902D01*
X165530451Y-103055334D01*
X165930383Y-102925243D01*
X166226038Y-102767214D01*
X166382048Y-102451653D01*
X165070000Y-101139605D01*
X163757952Y-102451653D01*
X129242048Y-102451653D01*
X127930000Y-101139605D01*
X126617952Y-102451653D01*
X125660000Y-102451653D01*
X125660000Y-101002824D01*
X125785098Y-101002824D01*
X125834666Y-101420451D01*
X125964757Y-101820383D01*
X126122786Y-102116038D01*
X126438347Y-102272048D01*
X127750395Y-100960000D01*
X128109605Y-100960000D01*
X129421653Y-102272048D01*
X129737214Y-102116038D01*
X129928020Y-101741255D01*
X130042044Y-101336449D01*
X130074902Y-100917176D01*
X130025334Y-100499549D01*
X129895243Y-100099617D01*
X129737214Y-99803962D01*
X129421653Y-99647952D01*
X128109605Y-100960000D01*
X127750395Y-100960000D01*
X126438347Y-99647952D01*
X126122786Y-99803962D01*
X125931980Y-100178745D01*
X125817956Y-100583551D01*
X125785098Y-101002824D01*
X125660000Y-101002824D01*
X125660000Y-99468347D01*
X126617952Y-99468347D01*
X127930000Y-100780395D01*
X129242048Y-99468347D01*
X129086038Y-99152786D01*
X128711255Y-98961980D01*
X128374034Y-98866993D01*
X129822612Y-98866993D01*
X129888137Y-99105860D01*
X130135116Y-99221760D01*
X130399960Y-99287250D01*
X130672492Y-99299812D01*
X130942238Y-99258965D01*
X131198832Y-99166277D01*
X131311863Y-99105860D01*
X131377388Y-98866993D01*
X130600000Y-98089605D01*
X129822612Y-98866993D01*
X128374034Y-98866993D01*
X128306449Y-98847956D01*
X127887176Y-98815098D01*
X127469549Y-98864666D01*
X127069617Y-98994757D01*
X126773962Y-99152786D01*
X126617952Y-99468347D01*
X125660000Y-99468347D01*
X125660000Y-97982492D01*
X129210188Y-97982492D01*
X129251035Y-98252238D01*
X129343723Y-98508832D01*
X129404140Y-98621863D01*
X129643007Y-98687388D01*
X130420395Y-97910000D01*
X130779605Y-97910000D01*
X131556993Y-98687388D01*
X131795860Y-98621863D01*
X131911760Y-98374884D01*
X131977250Y-98110040D01*
X131989812Y-97837508D01*
X131948965Y-97567762D01*
X131856277Y-97311168D01*
X131795860Y-97198137D01*
X131556993Y-97132612D01*
X130779605Y-97910000D01*
X130420395Y-97910000D01*
X129643007Y-97132612D01*
X129404140Y-97198137D01*
X129288240Y-97445116D01*
X129222750Y-97709960D01*
X129210188Y-97982492D01*
X125660000Y-97982492D01*
X125660000Y-88731653D01*
X126617952Y-88731653D01*
X126773962Y-89047214D01*
X127148745Y-89238020D01*
X127553551Y-89352044D01*
X127972824Y-89384902D01*
X128390451Y-89335334D01*
X128790383Y-89205243D01*
X129086038Y-89047214D01*
X129242048Y-88731653D01*
X127930000Y-87419605D01*
X126617952Y-88731653D01*
X125660000Y-88731653D01*
X125660000Y-87282824D01*
X125785098Y-87282824D01*
X125834666Y-87700451D01*
X125964757Y-88100383D01*
X126122786Y-88396038D01*
X126438347Y-88552048D01*
X127750395Y-87240000D01*
X128109605Y-87240000D01*
X129421653Y-88552048D01*
X129737214Y-88396038D01*
X129928020Y-88021255D01*
X130042044Y-87616449D01*
X130074902Y-87197176D01*
X130025334Y-86779549D01*
X129895243Y-86379617D01*
X129737214Y-86083962D01*
X129421653Y-85927952D01*
X128109605Y-87240000D01*
X127750395Y-87240000D01*
X126438347Y-85927952D01*
X126122786Y-86083962D01*
X125931980Y-86458745D01*
X125817956Y-86863551D01*
X125785098Y-87282824D01*
X125660000Y-87282824D01*
X125660000Y-85748347D01*
X126617952Y-85748347D01*
X127930000Y-87060395D01*
X129242048Y-85748347D01*
X129086038Y-85432786D01*
X128711255Y-85241980D01*
X128306449Y-85127956D01*
X127887176Y-85095098D01*
X127469549Y-85144666D01*
X127069617Y-85274757D01*
X126773962Y-85432786D01*
X126617952Y-85748347D01*
X125660000Y-85748347D01*
X125660000Y-84660000D01*
X133374549Y-84660000D01*
X133256710Y-84756708D01*
X133256710Y-84756708D01*
G37*
X133256710Y-84756708D02*
X133230560Y-84788572D01*
X130038574Y-87980559D01*
X130006710Y-88006709D01*
X129980562Y-88038571D01*
X129902364Y-88133855D01*
X129824828Y-88278914D01*
X129777082Y-88436312D01*
X129760960Y-88600000D01*
X129765001Y-88641028D01*
X129765001Y-89692204D01*
X129717114Y-89724201D01*
X129524201Y-89917114D01*
X129372629Y-90143957D01*
X129268225Y-90396011D01*
X129215000Y-90663589D01*
X129215000Y-90936411D01*
X129268225Y-91203989D01*
X129372629Y-91456043D01*
X129524201Y-91682886D01*
X129717114Y-91875799D01*
X129943957Y-92027371D01*
X130046873Y-92070000D01*
X129943957Y-92112629D01*
X129717114Y-92264201D01*
X129524201Y-92457114D01*
X129372629Y-92683957D01*
X129268225Y-92936011D01*
X129215000Y-93203589D01*
X129215000Y-93476411D01*
X129268225Y-93743989D01*
X129372629Y-93996043D01*
X129524201Y-94222886D01*
X129656315Y-94355000D01*
X129524201Y-94487114D01*
X129372629Y-94713957D01*
X129268225Y-94966011D01*
X129215000Y-95233589D01*
X129215000Y-95506411D01*
X129268225Y-95773989D01*
X129372629Y-96026043D01*
X129524201Y-96252886D01*
X129717114Y-96445799D01*
X129943957Y-96597371D01*
X130043279Y-96638511D01*
X130001168Y-96653723D01*
X129888137Y-96714140D01*
X129822612Y-96953007D01*
X130600000Y-97730395D01*
X131377388Y-96953007D01*
X131311863Y-96714140D01*
X131153523Y-96639836D01*
X131256043Y-96597371D01*
X131482886Y-96445799D01*
X131675799Y-96252886D01*
X131827371Y-96026043D01*
X131931775Y-95773989D01*
X131985000Y-95506411D01*
X131985000Y-95233589D01*
X131931775Y-94966011D01*
X131827371Y-94713957D01*
X131675799Y-94487114D01*
X131543685Y-94355000D01*
X131675799Y-94222886D01*
X131827371Y-93996043D01*
X131931775Y-93743989D01*
X131985000Y-93476411D01*
X131985000Y-93203589D01*
X131931775Y-92936011D01*
X131827371Y-92683957D01*
X131704455Y-92500000D01*
X133911928Y-92500000D01*
X133924188Y-92624482D01*
X133960498Y-92744180D01*
X134019463Y-92854494D01*
X134098815Y-92951185D01*
X134195506Y-93030537D01*
X134305820Y-93089502D01*
X134425518Y-93125812D01*
X134550000Y-93138072D01*
X134914250Y-93135000D01*
X135073000Y-92976250D01*
X135073000Y-92277000D01*
X135327000Y-92277000D01*
X135327000Y-92976250D01*
X135485750Y-93135000D01*
X135850000Y-93138072D01*
X135974482Y-93125812D01*
X136094180Y-93089502D01*
X136204494Y-93030537D01*
X136301185Y-92951185D01*
X136380537Y-92854494D01*
X136439502Y-92744180D01*
X136475812Y-92624482D01*
X136488072Y-92500000D01*
X136485000Y-92435750D01*
X136326250Y-92277000D01*
X135327000Y-92277000D01*
X135073000Y-92277000D01*
X134073750Y-92277000D01*
X133915000Y-92435750D01*
X133911928Y-92500000D01*
X131704455Y-92500000D01*
X131675799Y-92457114D01*
X131482886Y-92264201D01*
X131256043Y-92112629D01*
X131153127Y-92070000D01*
X131256043Y-92027371D01*
X131482886Y-91875799D01*
X131675799Y-91682886D01*
X131827371Y-91456043D01*
X131931775Y-91203989D01*
X131985000Y-90936411D01*
X131985000Y-90663589D01*
X131931775Y-90396011D01*
X131827371Y-90143957D01*
X131675799Y-89917114D01*
X131482886Y-89724201D01*
X131435000Y-89692205D01*
X131435000Y-88945867D01*
X134161928Y-86218940D01*
X134161928Y-87350000D01*
X134174188Y-87474482D01*
X134210498Y-87594180D01*
X134269463Y-87704494D01*
X134348815Y-87801185D01*
X134440001Y-87876019D01*
X134440000Y-89272762D01*
X134425518Y-89274188D01*
X134305820Y-89310498D01*
X134195506Y-89369463D01*
X134098815Y-89448815D01*
X134019463Y-89545506D01*
X133960498Y-89655820D01*
X133924188Y-89775518D01*
X133911928Y-89900000D01*
X133911928Y-90600000D01*
X133924188Y-90724482D01*
X133960498Y-90844180D01*
X134019463Y-90954494D01*
X134098815Y-91051185D01*
X134195506Y-91130537D01*
X134305820Y-91189502D01*
X134340427Y-91200000D01*
X134305820Y-91210498D01*
X134195506Y-91269463D01*
X134098815Y-91348815D01*
X134019463Y-91445506D01*
X133960498Y-91555820D01*
X133924188Y-91675518D01*
X133911928Y-91800000D01*
X133915000Y-91864250D01*
X134073750Y-92023000D01*
X135073000Y-92023000D01*
X135073000Y-92003000D01*
X135327000Y-92003000D01*
X135327000Y-92023000D01*
X136326250Y-92023000D01*
X136485000Y-91864250D01*
X136488072Y-91800000D01*
X136475812Y-91675518D01*
X136439502Y-91555820D01*
X136380537Y-91445506D01*
X136301185Y-91348815D01*
X136204494Y-91269463D01*
X136094180Y-91210498D01*
X136059573Y-91200000D01*
X136094180Y-91189502D01*
X136204494Y-91130537D01*
X136301185Y-91051185D01*
X136380537Y-90954494D01*
X136439502Y-90844180D01*
X136475812Y-90724482D01*
X136488072Y-90600000D01*
X136488072Y-89900000D01*
X136475812Y-89775518D01*
X136439502Y-89655820D01*
X136380537Y-89545506D01*
X136301185Y-89448815D01*
X136204494Y-89369463D01*
X136094180Y-89310498D01*
X135974482Y-89274188D01*
X135960000Y-89272762D01*
X135960000Y-87988072D01*
X136300000Y-87988072D01*
X136424482Y-87975812D01*
X136544180Y-87939502D01*
X136654494Y-87880537D01*
X136751185Y-87801185D01*
X136830537Y-87704494D01*
X136889502Y-87594180D01*
X136925812Y-87474482D01*
X136938072Y-87350000D01*
X136938072Y-86184999D01*
X137461928Y-86184999D01*
X137461928Y-87350000D01*
X137474188Y-87474482D01*
X137510498Y-87594180D01*
X137569463Y-87704494D01*
X137648815Y-87801185D01*
X137745506Y-87880537D01*
X137855820Y-87939502D01*
X137975518Y-87975812D01*
X138015000Y-87979701D01*
X138015000Y-88808981D01*
X138010960Y-88850000D01*
X138015000Y-88891018D01*
X138027082Y-89013688D01*
X138074828Y-89171086D01*
X138123384Y-89261928D01*
X137750000Y-89261928D01*
X137625518Y-89274188D01*
X137505820Y-89310498D01*
X137395506Y-89369463D01*
X137298815Y-89448815D01*
X137219463Y-89545506D01*
X137160498Y-89655820D01*
X137124188Y-89775518D01*
X137111928Y-89900000D01*
X137111928Y-90600000D01*
X137124188Y-90724482D01*
X137160498Y-90844180D01*
X137219463Y-90954494D01*
X137298815Y-91051185D01*
X137395506Y-91130537D01*
X137505820Y-91189502D01*
X137540427Y-91200000D01*
X137505820Y-91210498D01*
X137395506Y-91269463D01*
X137298815Y-91348815D01*
X137219463Y-91445506D01*
X137160498Y-91555820D01*
X137124188Y-91675518D01*
X137111928Y-91800000D01*
X137111928Y-92063271D01*
X136688998Y-92486201D01*
X136660000Y-92509999D01*
X136636202Y-92538997D01*
X136636201Y-92538998D01*
X136565026Y-92625724D01*
X136494454Y-92757754D01*
X136465109Y-92854494D01*
X136454773Y-92888571D01*
X136450998Y-92901015D01*
X136436324Y-93050000D01*
X136440001Y-93087332D01*
X136440000Y-96911928D01*
X136350000Y-96911928D01*
X136225518Y-96924188D01*
X136105820Y-96960498D01*
X135995506Y-97019463D01*
X135898815Y-97098815D01*
X135819463Y-97195506D01*
X135760498Y-97305820D01*
X135724188Y-97425518D01*
X135711928Y-97550000D01*
X135711928Y-99250000D01*
X135724188Y-99374482D01*
X135760498Y-99494180D01*
X135819463Y-99604494D01*
X135898815Y-99701185D01*
X135995506Y-99780537D01*
X136105820Y-99839502D01*
X136174687Y-99860393D01*
X136144866Y-99884866D01*
X135959294Y-100110986D01*
X135821401Y-100368966D01*
X135736487Y-100648889D01*
X135707815Y-100940000D01*
X135736487Y-101231111D01*
X135821401Y-101511034D01*
X135959294Y-101769014D01*
X136144866Y-101995134D01*
X136370986Y-102180706D01*
X136628966Y-102318599D01*
X136908889Y-102403513D01*
X137127050Y-102425000D01*
X137272950Y-102425000D01*
X137491111Y-102403513D01*
X137771034Y-102318599D01*
X138029014Y-102180706D01*
X138255134Y-101995134D01*
X138440706Y-101769014D01*
X138578599Y-101511034D01*
X138663513Y-101231111D01*
X138685997Y-101002824D01*
X162925098Y-101002824D01*
X162974666Y-101420451D01*
X163104757Y-101820383D01*
X163262786Y-102116038D01*
X163578347Y-102272048D01*
X164890395Y-100960000D01*
X163578347Y-99647952D01*
X163262786Y-99803962D01*
X163071980Y-100178745D01*
X162957956Y-100583551D01*
X162925098Y-101002824D01*
X138685997Y-101002824D01*
X138692185Y-100940000D01*
X138663513Y-100648889D01*
X138640797Y-100574005D01*
X138984802Y-100230000D01*
X142673982Y-100230000D01*
X142748815Y-100321185D01*
X142845506Y-100400537D01*
X142955820Y-100459502D01*
X143075518Y-100495812D01*
X143200000Y-100508072D01*
X144400000Y-100508072D01*
X144524482Y-100495812D01*
X144644180Y-100459502D01*
X144754494Y-100400537D01*
X144851185Y-100321185D01*
X144930537Y-100224494D01*
X144989502Y-100114180D01*
X145025812Y-99994482D01*
X145038072Y-99870000D01*
X145038072Y-99070000D01*
X145025812Y-98945518D01*
X144989502Y-98825820D01*
X144930537Y-98715506D01*
X144851185Y-98618815D01*
X144754494Y-98539463D01*
X144644180Y-98480498D01*
X144524482Y-98444188D01*
X144400000Y-98431928D01*
X143200000Y-98431928D01*
X143075518Y-98444188D01*
X142955820Y-98480498D01*
X142845506Y-98539463D01*
X142748815Y-98618815D01*
X142673982Y-98710000D01*
X138707323Y-98710000D01*
X138688072Y-98708104D01*
X138688072Y-97690000D01*
X142673982Y-97690000D01*
X142748815Y-97781185D01*
X142845506Y-97860537D01*
X142955820Y-97919502D01*
X143075518Y-97955812D01*
X143200000Y-97968072D01*
X144400000Y-97968072D01*
X144524482Y-97955812D01*
X144644180Y-97919502D01*
X144754494Y-97860537D01*
X144851185Y-97781185D01*
X144930537Y-97684494D01*
X144989502Y-97574180D01*
X145025812Y-97454482D01*
X145038072Y-97330000D01*
X145038072Y-96864999D01*
X145814132Y-96864999D01*
X148561928Y-99612796D01*
X148561928Y-99870000D01*
X148574188Y-99994482D01*
X148610498Y-100114180D01*
X148669463Y-100224494D01*
X148748815Y-100321185D01*
X148845506Y-100400537D01*
X148955820Y-100459502D01*
X149075518Y-100495812D01*
X149200000Y-100508072D01*
X150400000Y-100508072D01*
X150524482Y-100495812D01*
X150644180Y-100459502D01*
X150754494Y-100400537D01*
X150851185Y-100321185D01*
X150921915Y-100235000D01*
X153092546Y-100235000D01*
X153110498Y-100294180D01*
X153169463Y-100404494D01*
X153248815Y-100501185D01*
X153345506Y-100580537D01*
X153455820Y-100639502D01*
X153575518Y-100675812D01*
X153700000Y-100688072D01*
X154400000Y-100688072D01*
X154524482Y-100675812D01*
X154644180Y-100639502D01*
X154754494Y-100580537D01*
X154851185Y-100501185D01*
X154930537Y-100404494D01*
X154989502Y-100294180D01*
X155000000Y-100259573D01*
X155010498Y-100294180D01*
X155069463Y-100404494D01*
X155148815Y-100501185D01*
X155245506Y-100580537D01*
X155355820Y-100639502D01*
X155475518Y-100675812D01*
X155600000Y-100688072D01*
X156300000Y-100688072D01*
X156424482Y-100675812D01*
X156544180Y-100639502D01*
X156654494Y-100580537D01*
X156751185Y-100501185D01*
X156830537Y-100404494D01*
X156889502Y-100294180D01*
X156907454Y-100235000D01*
X160358982Y-100235000D01*
X160400000Y-100239040D01*
X160441018Y-100235000D01*
X160441019Y-100235000D01*
X160563689Y-100222918D01*
X160721087Y-100175172D01*
X160866146Y-100097636D01*
X160993291Y-99993291D01*
X161019446Y-99961421D01*
X161512520Y-99468347D01*
X163757952Y-99468347D01*
X165070000Y-100780395D01*
X166382048Y-99468347D01*
X166226038Y-99152786D01*
X165851255Y-98961980D01*
X165446449Y-98847956D01*
X165027176Y-98815098D01*
X164609549Y-98864666D01*
X164209617Y-98994757D01*
X163913962Y-99152786D01*
X163757952Y-99468347D01*
X161512520Y-99468347D01*
X162207103Y-98773764D01*
X162263589Y-98785000D01*
X162536411Y-98785000D01*
X162803989Y-98731775D01*
X163056043Y-98627371D01*
X163282886Y-98475799D01*
X163475799Y-98282886D01*
X163627371Y-98056043D01*
X163731775Y-97803989D01*
X163785000Y-97536411D01*
X163785000Y-97263589D01*
X163731775Y-96996011D01*
X163627371Y-96743957D01*
X163475799Y-96517114D01*
X163282886Y-96324201D01*
X163056043Y-96172629D01*
X162953127Y-96130000D01*
X163056043Y-96087371D01*
X163282886Y-95935799D01*
X163475799Y-95742886D01*
X163627371Y-95516043D01*
X163731775Y-95263989D01*
X163785000Y-94996411D01*
X163785000Y-94723589D01*
X163731775Y-94456011D01*
X163627371Y-94203957D01*
X163475799Y-93977114D01*
X163343685Y-93845000D01*
X163475799Y-93712886D01*
X163627371Y-93486043D01*
X163731775Y-93233989D01*
X163785000Y-92966411D01*
X163785000Y-92693589D01*
X163731775Y-92426011D01*
X163627371Y-92173957D01*
X163475799Y-91947114D01*
X163282886Y-91754201D01*
X163056043Y-91602629D01*
X162956721Y-91561489D01*
X162998832Y-91546277D01*
X163111863Y-91485860D01*
X163177388Y-91246993D01*
X162400000Y-90469605D01*
X161622612Y-91246993D01*
X161688137Y-91485860D01*
X161846477Y-91560164D01*
X161743957Y-91602629D01*
X161517114Y-91754201D01*
X161324201Y-91947114D01*
X161172629Y-92173957D01*
X161068225Y-92426011D01*
X161015000Y-92693589D01*
X161015000Y-92966411D01*
X161068225Y-93233989D01*
X161172629Y-93486043D01*
X161324201Y-93712886D01*
X161456315Y-93845000D01*
X161324201Y-93977114D01*
X161172629Y-94203957D01*
X161068225Y-94456011D01*
X161015000Y-94723589D01*
X161015000Y-94996411D01*
X161068225Y-95263989D01*
X161172629Y-95516043D01*
X161324201Y-95742886D01*
X161517114Y-95935799D01*
X161743957Y-96087371D01*
X161846873Y-96130000D01*
X161743957Y-96172629D01*
X161517114Y-96324201D01*
X161324201Y-96517114D01*
X161172629Y-96743957D01*
X161068225Y-96996011D01*
X161015000Y-97263589D01*
X161015000Y-97536411D01*
X161026236Y-97592897D01*
X160054133Y-98565000D01*
X156907454Y-98565000D01*
X156889502Y-98505820D01*
X156830537Y-98395506D01*
X156785000Y-98340019D01*
X156785000Y-94222621D01*
X156894180Y-94189502D01*
X157004494Y-94130537D01*
X157101185Y-94051185D01*
X157180537Y-93954494D01*
X157239502Y-93844180D01*
X157275812Y-93724482D01*
X157288072Y-93600000D01*
X157288072Y-92800000D01*
X157275812Y-92675518D01*
X157239502Y-92555820D01*
X157180537Y-92445506D01*
X157101185Y-92348815D01*
X157035000Y-92294499D01*
X157035000Y-92235000D01*
X157958982Y-92235000D01*
X158000000Y-92239040D01*
X158041018Y-92235000D01*
X158041019Y-92235000D01*
X158163689Y-92222918D01*
X158321087Y-92175172D01*
X158466146Y-92097636D01*
X158593291Y-91993291D01*
X158619446Y-91961421D01*
X158961422Y-91619445D01*
X158993291Y-91593291D01*
X159097636Y-91466146D01*
X159175172Y-91321087D01*
X159222918Y-91163689D01*
X159235000Y-91041019D01*
X159235000Y-91041009D01*
X159239039Y-91000001D01*
X159235000Y-90958993D01*
X159235000Y-90127000D01*
X159477000Y-90127000D01*
X159477000Y-91126250D01*
X159635750Y-91285000D01*
X159700000Y-91288072D01*
X159824482Y-91275812D01*
X159944180Y-91239502D01*
X160054494Y-91180537D01*
X160151185Y-91101185D01*
X160230537Y-91004494D01*
X160289502Y-90894180D01*
X160325812Y-90774482D01*
X160338072Y-90650000D01*
X160335648Y-90362492D01*
X161010188Y-90362492D01*
X161051035Y-90632238D01*
X161143723Y-90888832D01*
X161204140Y-91001863D01*
X161443007Y-91067388D01*
X162220395Y-90290000D01*
X162579605Y-90290000D01*
X163356993Y-91067388D01*
X163595860Y-91001863D01*
X163711760Y-90754884D01*
X163777250Y-90490040D01*
X163789812Y-90217508D01*
X163748965Y-89947762D01*
X163656277Y-89691168D01*
X163595860Y-89578137D01*
X163356993Y-89512612D01*
X162579605Y-90290000D01*
X162220395Y-90290000D01*
X161443007Y-89512612D01*
X161204140Y-89578137D01*
X161088240Y-89825116D01*
X161022750Y-90089960D01*
X161010188Y-90362492D01*
X160335648Y-90362492D01*
X160335000Y-90285750D01*
X160176250Y-90127000D01*
X159477000Y-90127000D01*
X159235000Y-90127000D01*
X159235000Y-88873750D01*
X159477000Y-88873750D01*
X159477000Y-89873000D01*
X160176250Y-89873000D01*
X160335000Y-89714250D01*
X160338072Y-89350000D01*
X160336399Y-89333007D01*
X161622612Y-89333007D01*
X162400000Y-90110395D01*
X163177388Y-89333007D01*
X163111863Y-89094140D01*
X162864884Y-88978240D01*
X162600040Y-88912750D01*
X162327508Y-88900188D01*
X162057762Y-88941035D01*
X161801168Y-89033723D01*
X161688137Y-89094140D01*
X161622612Y-89333007D01*
X160336399Y-89333007D01*
X160325812Y-89225518D01*
X160289502Y-89105820D01*
X160230537Y-88995506D01*
X160151185Y-88898815D01*
X160054494Y-88819463D01*
X159944180Y-88760498D01*
X159849091Y-88731653D01*
X163757952Y-88731653D01*
X163913962Y-89047214D01*
X164288745Y-89238020D01*
X164693551Y-89352044D01*
X165112824Y-89384902D01*
X165530451Y-89335334D01*
X165930383Y-89205243D01*
X166226038Y-89047214D01*
X166382048Y-88731653D01*
X165070000Y-87419605D01*
X163757952Y-88731653D01*
X159849091Y-88731653D01*
X159824482Y-88724188D01*
X159700000Y-88711928D01*
X159635750Y-88715000D01*
X159477000Y-88873750D01*
X159235000Y-88873750D01*
X159235000Y-88641018D01*
X159239040Y-88599999D01*
X159222918Y-88436311D01*
X159175172Y-88278913D01*
X159097636Y-88133854D01*
X159069852Y-88099999D01*
X158993291Y-88006709D01*
X158961426Y-87980558D01*
X158813214Y-87832347D01*
X158851185Y-87801185D01*
X158930537Y-87704494D01*
X158989502Y-87594180D01*
X159025812Y-87474482D01*
X159038072Y-87350000D01*
X159038072Y-87282824D01*
X162925098Y-87282824D01*
X162974666Y-87700451D01*
X163104757Y-88100383D01*
X163262786Y-88396038D01*
X163578347Y-88552048D01*
X164890395Y-87240000D01*
X165249605Y-87240000D01*
X166561653Y-88552048D01*
X166877214Y-88396038D01*
X167068020Y-88021255D01*
X167182044Y-87616449D01*
X167214902Y-87197176D01*
X167165334Y-86779549D01*
X167035243Y-86379617D01*
X166877214Y-86083962D01*
X166561653Y-85927952D01*
X165249605Y-87240000D01*
X164890395Y-87240000D01*
X163578347Y-85927952D01*
X163262786Y-86083962D01*
X163071980Y-86458745D01*
X162957956Y-86863551D01*
X162925098Y-87282824D01*
X159038072Y-87282824D01*
X159038072Y-85850000D01*
X159028061Y-85748347D01*
X163757952Y-85748347D01*
X165070000Y-87060395D01*
X166382048Y-85748347D01*
X166226038Y-85432786D01*
X165851255Y-85241980D01*
X165446449Y-85127956D01*
X165027176Y-85095098D01*
X164609549Y-85144666D01*
X164209617Y-85274757D01*
X163913962Y-85432786D01*
X163757952Y-85748347D01*
X159028061Y-85748347D01*
X159025812Y-85725518D01*
X158989502Y-85605820D01*
X158930537Y-85495506D01*
X158851185Y-85398815D01*
X158754494Y-85319463D01*
X158644180Y-85260498D01*
X158524482Y-85224188D01*
X158400000Y-85211928D01*
X156900000Y-85211928D01*
X156775518Y-85224188D01*
X156655820Y-85260498D01*
X156545506Y-85319463D01*
X156448815Y-85398815D01*
X156369463Y-85495506D01*
X156310498Y-85605820D01*
X156274188Y-85725518D01*
X156261928Y-85850000D01*
X156261928Y-86437127D01*
X155913804Y-86089003D01*
X155890001Y-86059999D01*
X155774276Y-85965026D01*
X155738072Y-85945674D01*
X155738072Y-85850000D01*
X155725812Y-85725518D01*
X155689502Y-85605820D01*
X155630537Y-85495506D01*
X155551185Y-85398815D01*
X155454494Y-85319463D01*
X155344180Y-85260498D01*
X155224482Y-85224188D01*
X155100000Y-85211928D01*
X153600000Y-85211928D01*
X153475518Y-85224188D01*
X153355820Y-85260498D01*
X153245506Y-85319463D01*
X153148815Y-85398815D01*
X153069463Y-85495506D01*
X153010498Y-85605820D01*
X152974188Y-85725518D01*
X152961928Y-85850000D01*
X152961928Y-87350000D01*
X152974188Y-87474482D01*
X153010498Y-87594180D01*
X153069463Y-87704494D01*
X153148815Y-87801185D01*
X153245506Y-87880537D01*
X153355820Y-87939502D01*
X153475518Y-87975812D01*
X153600000Y-87988072D01*
X155100000Y-87988072D01*
X155224482Y-87975812D01*
X155344180Y-87939502D01*
X155454494Y-87880537D01*
X155510101Y-87834902D01*
X156090001Y-88414803D01*
X156090000Y-88711928D01*
X155600000Y-88711928D01*
X155475518Y-88724188D01*
X155355820Y-88760498D01*
X155245506Y-88819463D01*
X155148815Y-88898815D01*
X155069463Y-88995506D01*
X155010498Y-89105820D01*
X155000000Y-89140427D01*
X154989502Y-89105820D01*
X154930537Y-88995506D01*
X154851185Y-88898815D01*
X154754494Y-88819463D01*
X154644180Y-88760498D01*
X154524482Y-88724188D01*
X154400000Y-88711928D01*
X153700000Y-88711928D01*
X153575518Y-88724188D01*
X153455820Y-88760498D01*
X153345506Y-88819463D01*
X153248815Y-88898815D01*
X153169463Y-88995506D01*
X153110498Y-89105820D01*
X153074188Y-89225518D01*
X153072762Y-89240000D01*
X152637322Y-89240000D01*
X152599999Y-89236324D01*
X152562676Y-89240000D01*
X152562667Y-89240000D01*
X152451014Y-89250997D01*
X152307753Y-89294454D01*
X152175723Y-89365026D01*
X152114830Y-89415000D01*
X152059999Y-89459999D01*
X152036200Y-89488998D01*
X151685199Y-89840000D01*
X151436046Y-89840000D01*
X151385537Y-89745506D01*
X151306185Y-89648815D01*
X151209494Y-89569463D01*
X151099180Y-89510498D01*
X150979482Y-89474188D01*
X150855000Y-89461928D01*
X148105000Y-89461928D01*
X147980518Y-89474188D01*
X147860820Y-89510498D01*
X147750506Y-89569463D01*
X147653815Y-89648815D01*
X147574463Y-89745506D01*
X147523954Y-89840000D01*
X145676046Y-89840000D01*
X145625537Y-89745506D01*
X145546185Y-89648815D01*
X145449494Y-89569463D01*
X145339180Y-89510498D01*
X145219482Y-89474188D01*
X145095000Y-89461928D01*
X142345000Y-89461928D01*
X142220518Y-89474188D01*
X142100820Y-89510498D01*
X141990506Y-89569463D01*
X141893815Y-89648815D01*
X141814463Y-89745506D01*
X141755498Y-89855820D01*
X141719188Y-89975518D01*
X141706928Y-90100000D01*
X141706928Y-91100000D01*
X141719188Y-91224482D01*
X141755498Y-91344180D01*
X141814463Y-91454494D01*
X141893815Y-91551185D01*
X141990506Y-91630537D01*
X142100820Y-91689502D01*
X142220518Y-91725812D01*
X142345000Y-91738072D01*
X145095000Y-91738072D01*
X145219482Y-91725812D01*
X145339180Y-91689502D01*
X145449494Y-91630537D01*
X145546185Y-91551185D01*
X145625537Y-91454494D01*
X145676046Y-91360000D01*
X147523954Y-91360000D01*
X147574463Y-91454494D01*
X147653815Y-91551185D01*
X147750506Y-91630537D01*
X147860820Y-91689502D01*
X147980518Y-91725812D01*
X148105000Y-91738072D01*
X150855000Y-91738072D01*
X150979482Y-91725812D01*
X151099180Y-91689502D01*
X151209494Y-91630537D01*
X151306185Y-91551185D01*
X151385537Y-91454494D01*
X151436046Y-91360000D01*
X151962678Y-91360000D01*
X152000000Y-91363676D01*
X152037322Y-91360000D01*
X152037333Y-91360000D01*
X152148986Y-91349003D01*
X152292247Y-91305546D01*
X152424276Y-91234974D01*
X152540001Y-91140001D01*
X152563803Y-91110998D01*
X152914802Y-90760000D01*
X153072762Y-90760000D01*
X153074188Y-90774482D01*
X153110498Y-90894180D01*
X153169463Y-91004494D01*
X153248815Y-91101185D01*
X153345506Y-91180537D01*
X153455820Y-91239502D01*
X153515427Y-91257584D01*
X153505820Y-91260498D01*
X153395506Y-91319463D01*
X153298815Y-91398815D01*
X153219463Y-91495506D01*
X153160498Y-91605820D01*
X153124188Y-91725518D01*
X153111928Y-91850000D01*
X153111928Y-92650000D01*
X153124188Y-92774482D01*
X153160498Y-92894180D01*
X153219463Y-93004494D01*
X153298815Y-93101185D01*
X153395506Y-93180537D01*
X153431918Y-93200000D01*
X153395506Y-93219463D01*
X153298815Y-93298815D01*
X153219463Y-93395506D01*
X153160498Y-93505820D01*
X153124188Y-93625518D01*
X153111928Y-93750000D01*
X153115000Y-93864250D01*
X153273750Y-94023000D01*
X154073000Y-94023000D01*
X154073000Y-94003000D01*
X154327000Y-94003000D01*
X154327000Y-94023000D01*
X154347000Y-94023000D01*
X154347000Y-94277000D01*
X154327000Y-94277000D01*
X154327000Y-95026250D01*
X154485750Y-95185000D01*
X154650000Y-95188072D01*
X154774482Y-95175812D01*
X154894180Y-95139502D01*
X155004494Y-95080537D01*
X155101185Y-95001185D01*
X155115001Y-94984350D01*
X155115000Y-97412437D01*
X155099999Y-97410959D01*
X155058981Y-97414999D01*
X151029701Y-97414999D01*
X151038072Y-97330000D01*
X151038072Y-96530000D01*
X151025812Y-96405518D01*
X150989502Y-96285820D01*
X150930537Y-96175506D01*
X150851185Y-96078815D01*
X150754494Y-95999463D01*
X150644180Y-95940498D01*
X150524482Y-95904188D01*
X150400000Y-95891928D01*
X149200000Y-95891928D01*
X149075518Y-95904188D01*
X148955820Y-95940498D01*
X148845506Y-95999463D01*
X148748815Y-96078815D01*
X148669463Y-96175506D01*
X148610498Y-96285820D01*
X148574188Y-96405518D01*
X148561928Y-96530000D01*
X148561928Y-97251060D01*
X146779445Y-95468578D01*
X146753290Y-95436708D01*
X146626145Y-95332363D01*
X146481086Y-95254827D01*
X146323688Y-95207081D01*
X146201018Y-95194999D01*
X146201017Y-95194999D01*
X146159999Y-95190959D01*
X146118981Y-95194999D01*
X142841006Y-95194999D01*
X142799998Y-95190960D01*
X142758990Y-95194999D01*
X142758980Y-95194999D01*
X142636310Y-95207081D01*
X142478912Y-95254827D01*
X142403756Y-95294999D01*
X139110020Y-95294999D01*
X139110020Y-94550000D01*
X153111928Y-94550000D01*
X153124188Y-94674482D01*
X153160498Y-94794180D01*
X153219463Y-94904494D01*
X153298815Y-95001185D01*
X153395506Y-95080537D01*
X153505820Y-95139502D01*
X153625518Y-95175812D01*
X153750000Y-95188072D01*
X153914250Y-95185000D01*
X154073000Y-95026250D01*
X154073000Y-94277000D01*
X153273750Y-94277000D01*
X153115000Y-94435750D01*
X153111928Y-94550000D01*
X139110020Y-94550000D01*
X139110020Y-94285011D01*
X139527870Y-94285011D01*
X139568888Y-94289051D01*
X139609906Y-94285011D01*
X139609907Y-94285011D01*
X139732577Y-94272929D01*
X139889975Y-94225183D01*
X140035034Y-94147647D01*
X140162179Y-94043302D01*
X140188334Y-94011432D01*
X140561433Y-93638333D01*
X140593302Y-93612179D01*
X140697647Y-93485034D01*
X140775183Y-93339975D01*
X140822929Y-93182577D01*
X140835011Y-93059907D01*
X140835011Y-93059906D01*
X140839051Y-93018888D01*
X140835011Y-92977870D01*
X140835011Y-89991027D01*
X140839051Y-89950008D01*
X140822929Y-89786320D01*
X140775183Y-89628922D01*
X140697647Y-89483863D01*
X140678062Y-89459999D01*
X140593302Y-89356718D01*
X140561432Y-89330563D01*
X140069448Y-88838579D01*
X140043293Y-88806709D01*
X139916148Y-88702364D01*
X139845433Y-88664566D01*
X139685000Y-88504133D01*
X139685000Y-87979701D01*
X139724482Y-87975812D01*
X139844180Y-87939502D01*
X139954494Y-87880537D01*
X140051185Y-87801185D01*
X140130537Y-87704494D01*
X140189502Y-87594180D01*
X140225812Y-87474482D01*
X140229701Y-87435000D01*
X141804043Y-87435000D01*
X141814463Y-87454494D01*
X141893815Y-87551185D01*
X141990506Y-87630537D01*
X142100820Y-87689502D01*
X142220518Y-87725812D01*
X142345000Y-87738072D01*
X145095000Y-87738072D01*
X145219482Y-87725812D01*
X145339180Y-87689502D01*
X145449494Y-87630537D01*
X145546185Y-87551185D01*
X145625537Y-87454494D01*
X145635957Y-87435000D01*
X147564043Y-87435000D01*
X147574463Y-87454494D01*
X147653815Y-87551185D01*
X147750506Y-87630537D01*
X147860820Y-87689502D01*
X147980518Y-87725812D01*
X148105000Y-87738072D01*
X150855000Y-87738072D01*
X150979482Y-87725812D01*
X151099180Y-87689502D01*
X151209494Y-87630537D01*
X151306185Y-87551185D01*
X151385537Y-87454494D01*
X151444502Y-87344180D01*
X151480812Y-87224482D01*
X151493072Y-87100000D01*
X151493072Y-86100000D01*
X151480812Y-85975518D01*
X151444502Y-85855820D01*
X151385537Y-85745506D01*
X151306185Y-85648815D01*
X151209494Y-85569463D01*
X151099180Y-85510498D01*
X150979482Y-85474188D01*
X150855000Y-85461928D01*
X148105000Y-85461928D01*
X147980518Y-85474188D01*
X147860820Y-85510498D01*
X147750506Y-85569463D01*
X147653815Y-85648815D01*
X147574463Y-85745506D01*
X147564043Y-85765000D01*
X145635957Y-85765000D01*
X145625537Y-85745506D01*
X145546185Y-85648815D01*
X145449494Y-85569463D01*
X145339180Y-85510498D01*
X145219482Y-85474188D01*
X145095000Y-85461928D01*
X142345000Y-85461928D01*
X142220518Y-85474188D01*
X142100820Y-85510498D01*
X141990506Y-85569463D01*
X141893815Y-85648815D01*
X141814463Y-85745506D01*
X141804043Y-85765000D01*
X140229701Y-85765000D01*
X140225812Y-85725518D01*
X140189502Y-85605820D01*
X140130537Y-85495506D01*
X140051185Y-85398815D01*
X139954494Y-85319463D01*
X139844180Y-85260498D01*
X139724482Y-85224188D01*
X139651905Y-85217040D01*
X139625172Y-85128913D01*
X139547636Y-84983854D01*
X139443291Y-84856709D01*
X139411426Y-84830558D01*
X139369443Y-84788576D01*
X139343290Y-84756708D01*
X139225451Y-84660000D01*
X167333368Y-84660000D01*
X167174223Y-100574441D01*
X167165334Y-100499549D01*
X167035243Y-100099617D01*
X166877214Y-99803962D01*
X166561653Y-99647952D01*
X165249605Y-100960000D01*
X166561653Y-102272048D01*
X166877214Y-102116038D01*
X167068020Y-101741255D01*
X167166034Y-101393286D01*
X167146567Y-103340000D01*
X125660000Y-103340000D01*
X125660000Y-102451653D01*
X126617952Y-102451653D01*
X126773962Y-102767214D01*
X127148745Y-102958020D01*
X127553551Y-103072044D01*
X127972824Y-103104902D01*
X128390451Y-103055334D01*
X128790383Y-102925243D01*
X129086038Y-102767214D01*
X129242048Y-102451653D01*
X163757952Y-102451653D01*
X163913962Y-102767214D01*
X164288745Y-102958020D01*
X164693551Y-103072044D01*
X165112824Y-103104902D01*
X165530451Y-103055334D01*
X165930383Y-102925243D01*
X166226038Y-102767214D01*
X166382048Y-102451653D01*
X165070000Y-101139605D01*
X163757952Y-102451653D01*
X129242048Y-102451653D01*
X127930000Y-101139605D01*
X126617952Y-102451653D01*
X125660000Y-102451653D01*
X125660000Y-101002824D01*
X125785098Y-101002824D01*
X125834666Y-101420451D01*
X125964757Y-101820383D01*
X126122786Y-102116038D01*
X126438347Y-102272048D01*
X127750395Y-100960000D01*
X128109605Y-100960000D01*
X129421653Y-102272048D01*
X129737214Y-102116038D01*
X129928020Y-101741255D01*
X130042044Y-101336449D01*
X130074902Y-100917176D01*
X130025334Y-100499549D01*
X129895243Y-100099617D01*
X129737214Y-99803962D01*
X129421653Y-99647952D01*
X128109605Y-100960000D01*
X127750395Y-100960000D01*
X126438347Y-99647952D01*
X126122786Y-99803962D01*
X125931980Y-100178745D01*
X125817956Y-100583551D01*
X125785098Y-101002824D01*
X125660000Y-101002824D01*
X125660000Y-99468347D01*
X126617952Y-99468347D01*
X127930000Y-100780395D01*
X129242048Y-99468347D01*
X129086038Y-99152786D01*
X128711255Y-98961980D01*
X128374034Y-98866993D01*
X129822612Y-98866993D01*
X129888137Y-99105860D01*
X130135116Y-99221760D01*
X130399960Y-99287250D01*
X130672492Y-99299812D01*
X130942238Y-99258965D01*
X131198832Y-99166277D01*
X131311863Y-99105860D01*
X131377388Y-98866993D01*
X130600000Y-98089605D01*
X129822612Y-98866993D01*
X128374034Y-98866993D01*
X128306449Y-98847956D01*
X127887176Y-98815098D01*
X127469549Y-98864666D01*
X127069617Y-98994757D01*
X126773962Y-99152786D01*
X126617952Y-99468347D01*
X125660000Y-99468347D01*
X125660000Y-97982492D01*
X129210188Y-97982492D01*
X129251035Y-98252238D01*
X129343723Y-98508832D01*
X129404140Y-98621863D01*
X129643007Y-98687388D01*
X130420395Y-97910000D01*
X130779605Y-97910000D01*
X131556993Y-98687388D01*
X131795860Y-98621863D01*
X131911760Y-98374884D01*
X131977250Y-98110040D01*
X131989812Y-97837508D01*
X131948965Y-97567762D01*
X131856277Y-97311168D01*
X131795860Y-97198137D01*
X131556993Y-97132612D01*
X130779605Y-97910000D01*
X130420395Y-97910000D01*
X129643007Y-97132612D01*
X129404140Y-97198137D01*
X129288240Y-97445116D01*
X129222750Y-97709960D01*
X129210188Y-97982492D01*
X125660000Y-97982492D01*
X125660000Y-88731653D01*
X126617952Y-88731653D01*
X126773962Y-89047214D01*
X127148745Y-89238020D01*
X127553551Y-89352044D01*
X127972824Y-89384902D01*
X128390451Y-89335334D01*
X128790383Y-89205243D01*
X129086038Y-89047214D01*
X129242048Y-88731653D01*
X127930000Y-87419605D01*
X126617952Y-88731653D01*
X125660000Y-88731653D01*
X125660000Y-87282824D01*
X125785098Y-87282824D01*
X125834666Y-87700451D01*
X125964757Y-88100383D01*
X126122786Y-88396038D01*
X126438347Y-88552048D01*
X127750395Y-87240000D01*
X128109605Y-87240000D01*
X129421653Y-88552048D01*
X129737214Y-88396038D01*
X129928020Y-88021255D01*
X130042044Y-87616449D01*
X130074902Y-87197176D01*
X130025334Y-86779549D01*
X129895243Y-86379617D01*
X129737214Y-86083962D01*
X129421653Y-85927952D01*
X128109605Y-87240000D01*
X127750395Y-87240000D01*
X126438347Y-85927952D01*
X126122786Y-86083962D01*
X125931980Y-86458745D01*
X125817956Y-86863551D01*
X125785098Y-87282824D01*
X125660000Y-87282824D01*
X125660000Y-85748347D01*
X126617952Y-85748347D01*
X127930000Y-87060395D01*
X129242048Y-85748347D01*
X129086038Y-85432786D01*
X128711255Y-85241980D01*
X128306449Y-85127956D01*
X127887176Y-85095098D01*
X127469549Y-85144666D01*
X127069617Y-85274757D01*
X126773962Y-85432786D01*
X126617952Y-85748347D01*
X125660000Y-85748347D01*
X125660000Y-84660000D01*
X133374549Y-84660000D01*
X133256710Y-84756708D01*
M02*
