G04 #@! TF.GenerationSoftware,KiCad,Pcbnew,(5.1.2)-2*
G04 #@! TF.CreationDate,2019-06-15T14:58:01+10:00*
G04 #@! TF.ProjectId,USBResetter,55534252-6573-4657-9474-65722e6b6963,rev?*
G04 #@! TF.SameCoordinates,Original*
G04 #@! TF.FileFunction,Soldermask,Bot*
G04 #@! TF.FilePolarity,Negative*
%FSLAX46Y46*%
G04 Gerber Fmt 4.6, Leading zero omitted, Abs format (unit mm)*
G04 Created by KiCad (PCBNEW (5.1.2)-2) date 2019-06-15 14:58:01*
%MOMM*%
%LPD*%
G04 APERTURE LIST*
%ADD10C,0.100000*%
G04 APERTURE END LIST*
D10*
G36*
X128232585Y-99438802D02*
G01*
X128382410Y-99468604D01*
X128664674Y-99585521D01*
X128918705Y-99755259D01*
X129134741Y-99971295D01*
X129304479Y-100225326D01*
X129421396Y-100507590D01*
X129481000Y-100807240D01*
X129481000Y-101112760D01*
X129421396Y-101412410D01*
X129304479Y-101694674D01*
X129134741Y-101948705D01*
X128918705Y-102164741D01*
X128664674Y-102334479D01*
X128382410Y-102451396D01*
X128232585Y-102481198D01*
X128082761Y-102511000D01*
X127777239Y-102511000D01*
X127627415Y-102481198D01*
X127477590Y-102451396D01*
X127195326Y-102334479D01*
X126941295Y-102164741D01*
X126725259Y-101948705D01*
X126555521Y-101694674D01*
X126438604Y-101412410D01*
X126379000Y-101112760D01*
X126379000Y-100807240D01*
X126438604Y-100507590D01*
X126555521Y-100225326D01*
X126725259Y-99971295D01*
X126941295Y-99755259D01*
X127195326Y-99585521D01*
X127477590Y-99468604D01*
X127627415Y-99438802D01*
X127777239Y-99409000D01*
X128082761Y-99409000D01*
X128232585Y-99438802D01*
X128232585Y-99438802D01*
G37*
G36*
X165372585Y-99438802D02*
G01*
X165522410Y-99468604D01*
X165804674Y-99585521D01*
X166058705Y-99755259D01*
X166274741Y-99971295D01*
X166444479Y-100225326D01*
X166561396Y-100507590D01*
X166621000Y-100807240D01*
X166621000Y-101112760D01*
X166561396Y-101412410D01*
X166444479Y-101694674D01*
X166274741Y-101948705D01*
X166058705Y-102164741D01*
X165804674Y-102334479D01*
X165522410Y-102451396D01*
X165372585Y-102481198D01*
X165222761Y-102511000D01*
X164917239Y-102511000D01*
X164767415Y-102481198D01*
X164617590Y-102451396D01*
X164335326Y-102334479D01*
X164081295Y-102164741D01*
X163865259Y-101948705D01*
X163695521Y-101694674D01*
X163578604Y-101412410D01*
X163519000Y-101112760D01*
X163519000Y-100807240D01*
X163578604Y-100507590D01*
X163695521Y-100225326D01*
X163865259Y-99971295D01*
X164081295Y-99755259D01*
X164335326Y-99585521D01*
X164617590Y-99468604D01*
X164767415Y-99438802D01*
X164917239Y-99409000D01*
X165222761Y-99409000D01*
X165372585Y-99438802D01*
X165372585Y-99438802D01*
G37*
G36*
X137310443Y-100045519D02*
G01*
X137376627Y-100052037D01*
X137546466Y-100103557D01*
X137702991Y-100187222D01*
X137738729Y-100216552D01*
X137840186Y-100299814D01*
X137923448Y-100401271D01*
X137952778Y-100437009D01*
X138036443Y-100593534D01*
X138087963Y-100763373D01*
X138105359Y-100940000D01*
X138087963Y-101116627D01*
X138036443Y-101286466D01*
X137952778Y-101442991D01*
X137923448Y-101478729D01*
X137840186Y-101580186D01*
X137738729Y-101663448D01*
X137702991Y-101692778D01*
X137546466Y-101776443D01*
X137376627Y-101827963D01*
X137310442Y-101834482D01*
X137244260Y-101841000D01*
X137155740Y-101841000D01*
X137089557Y-101834481D01*
X137023373Y-101827963D01*
X136853534Y-101776443D01*
X136697009Y-101692778D01*
X136661271Y-101663448D01*
X136559814Y-101580186D01*
X136476552Y-101478729D01*
X136447222Y-101442991D01*
X136363557Y-101286466D01*
X136312037Y-101116627D01*
X136294641Y-100940000D01*
X136312037Y-100763373D01*
X136363557Y-100593534D01*
X136447222Y-100437009D01*
X136476552Y-100401271D01*
X136559814Y-100299814D01*
X136661271Y-100216552D01*
X136697009Y-100187222D01*
X136853534Y-100103557D01*
X137023373Y-100052037D01*
X137089557Y-100045519D01*
X137155740Y-100039000D01*
X137244260Y-100039000D01*
X137310443Y-100045519D01*
X137310443Y-100045519D01*
G37*
G36*
X138101000Y-99301000D02*
G01*
X136299000Y-99301000D01*
X136299000Y-97499000D01*
X138101000Y-97499000D01*
X138101000Y-99301000D01*
X138101000Y-99301000D01*
G37*
G36*
X130833642Y-97139781D02*
G01*
X130979414Y-97200162D01*
X130979416Y-97200163D01*
X131110608Y-97287822D01*
X131222178Y-97399392D01*
X131275298Y-97478893D01*
X131309838Y-97530586D01*
X131370219Y-97676358D01*
X131401000Y-97831107D01*
X131401000Y-97988893D01*
X131370219Y-98143642D01*
X131359210Y-98170219D01*
X131309837Y-98289416D01*
X131222178Y-98420608D01*
X131110608Y-98532178D01*
X130979416Y-98619837D01*
X130979415Y-98619838D01*
X130979414Y-98619838D01*
X130833642Y-98680219D01*
X130678893Y-98711000D01*
X130521107Y-98711000D01*
X130366358Y-98680219D01*
X130220586Y-98619838D01*
X130220585Y-98619838D01*
X130220584Y-98619837D01*
X130089392Y-98532178D01*
X129977822Y-98420608D01*
X129890163Y-98289416D01*
X129840790Y-98170219D01*
X129829781Y-98143642D01*
X129799000Y-97988893D01*
X129799000Y-97831107D01*
X129829781Y-97676358D01*
X129890162Y-97530586D01*
X129924702Y-97478893D01*
X129977822Y-97399392D01*
X130089392Y-97287822D01*
X130220584Y-97200163D01*
X130220586Y-97200162D01*
X130366358Y-97139781D01*
X130521107Y-97109000D01*
X130678893Y-97109000D01*
X130833642Y-97139781D01*
X130833642Y-97139781D01*
G37*
G36*
X162633642Y-96629781D02*
G01*
X162779414Y-96690162D01*
X162779416Y-96690163D01*
X162910608Y-96777822D01*
X163022178Y-96889392D01*
X163109837Y-97020584D01*
X163109838Y-97020586D01*
X163170219Y-97166358D01*
X163201000Y-97321107D01*
X163201000Y-97478893D01*
X163170219Y-97633642D01*
X163152525Y-97676358D01*
X163109837Y-97779416D01*
X163022178Y-97910608D01*
X162910608Y-98022178D01*
X162779416Y-98109837D01*
X162779415Y-98109838D01*
X162779414Y-98109838D01*
X162633642Y-98170219D01*
X162478893Y-98201000D01*
X162321107Y-98201000D01*
X162166358Y-98170219D01*
X162020586Y-98109838D01*
X162020585Y-98109838D01*
X162020584Y-98109837D01*
X161889392Y-98022178D01*
X161777822Y-97910608D01*
X161690163Y-97779416D01*
X161647475Y-97676358D01*
X161629781Y-97633642D01*
X161599000Y-97478893D01*
X161599000Y-97321107D01*
X161629781Y-97166358D01*
X161690162Y-97020586D01*
X161690163Y-97020584D01*
X161777822Y-96889392D01*
X161889392Y-96777822D01*
X162020584Y-96690163D01*
X162020586Y-96690162D01*
X162166358Y-96629781D01*
X162321107Y-96599000D01*
X162478893Y-96599000D01*
X162633642Y-96629781D01*
X162633642Y-96629781D01*
G37*
G36*
X130833642Y-94599781D02*
G01*
X130979414Y-94660162D01*
X130979416Y-94660163D01*
X131110608Y-94747822D01*
X131222178Y-94859392D01*
X131275298Y-94938893D01*
X131309838Y-94990586D01*
X131370219Y-95136358D01*
X131401000Y-95291107D01*
X131401000Y-95448893D01*
X131370219Y-95603642D01*
X131359210Y-95630219D01*
X131309837Y-95749416D01*
X131222178Y-95880608D01*
X131110608Y-95992178D01*
X130979416Y-96079837D01*
X130979415Y-96079838D01*
X130979414Y-96079838D01*
X130833642Y-96140219D01*
X130678893Y-96171000D01*
X130521107Y-96171000D01*
X130366358Y-96140219D01*
X130220586Y-96079838D01*
X130220585Y-96079838D01*
X130220584Y-96079837D01*
X130089392Y-95992178D01*
X129977822Y-95880608D01*
X129890163Y-95749416D01*
X129840790Y-95630219D01*
X129829781Y-95603642D01*
X129799000Y-95448893D01*
X129799000Y-95291107D01*
X129829781Y-95136358D01*
X129890162Y-94990586D01*
X129924702Y-94938893D01*
X129977822Y-94859392D01*
X130089392Y-94747822D01*
X130220584Y-94660163D01*
X130220586Y-94660162D01*
X130366358Y-94599781D01*
X130521107Y-94569000D01*
X130678893Y-94569000D01*
X130833642Y-94599781D01*
X130833642Y-94599781D01*
G37*
G36*
X162633642Y-94089781D02*
G01*
X162757295Y-94141000D01*
X162779416Y-94150163D01*
X162910608Y-94237822D01*
X163022178Y-94349392D01*
X163109837Y-94480584D01*
X163109838Y-94480586D01*
X163170219Y-94626358D01*
X163201000Y-94781107D01*
X163201000Y-94938893D01*
X163170219Y-95093642D01*
X163152525Y-95136358D01*
X163109837Y-95239416D01*
X163022178Y-95370608D01*
X162910608Y-95482178D01*
X162779416Y-95569837D01*
X162779415Y-95569838D01*
X162779414Y-95569838D01*
X162633642Y-95630219D01*
X162478893Y-95661000D01*
X162321107Y-95661000D01*
X162166358Y-95630219D01*
X162020586Y-95569838D01*
X162020585Y-95569838D01*
X162020584Y-95569837D01*
X161889392Y-95482178D01*
X161777822Y-95370608D01*
X161690163Y-95239416D01*
X161647475Y-95136358D01*
X161629781Y-95093642D01*
X161599000Y-94938893D01*
X161599000Y-94781107D01*
X161629781Y-94626358D01*
X161690162Y-94480586D01*
X161690163Y-94480584D01*
X161777822Y-94349392D01*
X161889392Y-94237822D01*
X162020584Y-94150163D01*
X162042705Y-94141000D01*
X162166358Y-94089781D01*
X162321107Y-94059000D01*
X162478893Y-94059000D01*
X162633642Y-94089781D01*
X162633642Y-94089781D01*
G37*
G36*
X130833642Y-92569781D02*
G01*
X130979414Y-92630162D01*
X130979416Y-92630163D01*
X131110608Y-92717822D01*
X131222178Y-92829392D01*
X131275298Y-92908893D01*
X131309838Y-92960586D01*
X131370219Y-93106358D01*
X131401000Y-93261107D01*
X131401000Y-93418893D01*
X131370219Y-93573642D01*
X131359210Y-93600219D01*
X131309837Y-93719416D01*
X131222178Y-93850608D01*
X131110608Y-93962178D01*
X130979416Y-94049837D01*
X130979415Y-94049838D01*
X130979414Y-94049838D01*
X130833642Y-94110219D01*
X130678893Y-94141000D01*
X130521107Y-94141000D01*
X130366358Y-94110219D01*
X130220586Y-94049838D01*
X130220585Y-94049838D01*
X130220584Y-94049837D01*
X130089392Y-93962178D01*
X129977822Y-93850608D01*
X129890163Y-93719416D01*
X129840790Y-93600219D01*
X129829781Y-93573642D01*
X129799000Y-93418893D01*
X129799000Y-93261107D01*
X129829781Y-93106358D01*
X129890162Y-92960586D01*
X129924702Y-92908893D01*
X129977822Y-92829392D01*
X130089392Y-92717822D01*
X130220584Y-92630163D01*
X130220586Y-92630162D01*
X130366358Y-92569781D01*
X130521107Y-92539000D01*
X130678893Y-92539000D01*
X130833642Y-92569781D01*
X130833642Y-92569781D01*
G37*
G36*
X162633642Y-92059781D02*
G01*
X162779414Y-92120162D01*
X162779416Y-92120163D01*
X162910608Y-92207822D01*
X163022178Y-92319392D01*
X163109837Y-92450584D01*
X163109838Y-92450586D01*
X163170219Y-92596358D01*
X163201000Y-92751107D01*
X163201000Y-92908893D01*
X163170219Y-93063642D01*
X163152525Y-93106358D01*
X163109837Y-93209416D01*
X163022178Y-93340608D01*
X162910608Y-93452178D01*
X162779416Y-93539837D01*
X162779415Y-93539838D01*
X162779414Y-93539838D01*
X162633642Y-93600219D01*
X162478893Y-93631000D01*
X162321107Y-93631000D01*
X162166358Y-93600219D01*
X162020586Y-93539838D01*
X162020585Y-93539838D01*
X162020584Y-93539837D01*
X161889392Y-93452178D01*
X161777822Y-93340608D01*
X161690163Y-93209416D01*
X161647475Y-93106358D01*
X161629781Y-93063642D01*
X161599000Y-92908893D01*
X161599000Y-92751107D01*
X161629781Y-92596358D01*
X161690162Y-92450586D01*
X161690163Y-92450584D01*
X161777822Y-92319392D01*
X161889392Y-92207822D01*
X162020584Y-92120163D01*
X162020586Y-92120162D01*
X162166358Y-92059781D01*
X162321107Y-92029000D01*
X162478893Y-92029000D01*
X162633642Y-92059781D01*
X162633642Y-92059781D01*
G37*
G36*
X130833642Y-90029781D02*
G01*
X130979414Y-90090162D01*
X130979416Y-90090163D01*
X131110608Y-90177822D01*
X131222178Y-90289392D01*
X131275298Y-90368893D01*
X131309838Y-90420586D01*
X131370219Y-90566358D01*
X131401000Y-90721107D01*
X131401000Y-90878893D01*
X131370219Y-91033642D01*
X131359210Y-91060219D01*
X131309837Y-91179416D01*
X131222178Y-91310608D01*
X131110608Y-91422178D01*
X130979416Y-91509837D01*
X130979415Y-91509838D01*
X130979414Y-91509838D01*
X130833642Y-91570219D01*
X130678893Y-91601000D01*
X130521107Y-91601000D01*
X130366358Y-91570219D01*
X130220586Y-91509838D01*
X130220585Y-91509838D01*
X130220584Y-91509837D01*
X130089392Y-91422178D01*
X129977822Y-91310608D01*
X129890163Y-91179416D01*
X129840790Y-91060219D01*
X129829781Y-91033642D01*
X129799000Y-90878893D01*
X129799000Y-90721107D01*
X129829781Y-90566358D01*
X129890162Y-90420586D01*
X129924702Y-90368893D01*
X129977822Y-90289392D01*
X130089392Y-90177822D01*
X130220584Y-90090163D01*
X130220586Y-90090162D01*
X130366358Y-90029781D01*
X130521107Y-89999000D01*
X130678893Y-89999000D01*
X130833642Y-90029781D01*
X130833642Y-90029781D01*
G37*
G36*
X162633642Y-89519781D02*
G01*
X162779414Y-89580162D01*
X162779416Y-89580163D01*
X162910608Y-89667822D01*
X163022178Y-89779392D01*
X163109837Y-89910584D01*
X163109838Y-89910586D01*
X163170219Y-90056358D01*
X163201000Y-90211107D01*
X163201000Y-90368893D01*
X163170219Y-90523642D01*
X163152525Y-90566358D01*
X163109837Y-90669416D01*
X163022178Y-90800608D01*
X162910608Y-90912178D01*
X162779416Y-90999837D01*
X162779415Y-90999838D01*
X162779414Y-90999838D01*
X162633642Y-91060219D01*
X162478893Y-91091000D01*
X162321107Y-91091000D01*
X162166358Y-91060219D01*
X162020586Y-90999838D01*
X162020585Y-90999838D01*
X162020584Y-90999837D01*
X161889392Y-90912178D01*
X161777822Y-90800608D01*
X161690163Y-90669416D01*
X161647475Y-90566358D01*
X161629781Y-90523642D01*
X161599000Y-90368893D01*
X161599000Y-90211107D01*
X161629781Y-90056358D01*
X161690162Y-89910586D01*
X161690163Y-89910584D01*
X161777822Y-89779392D01*
X161889392Y-89667822D01*
X162020584Y-89580163D01*
X162020586Y-89580162D01*
X162166358Y-89519781D01*
X162321107Y-89489000D01*
X162478893Y-89489000D01*
X162633642Y-89519781D01*
X162633642Y-89519781D01*
G37*
G36*
X128232585Y-85718802D02*
G01*
X128382410Y-85748604D01*
X128664674Y-85865521D01*
X128918705Y-86035259D01*
X129134741Y-86251295D01*
X129304479Y-86505326D01*
X129421396Y-86787590D01*
X129481000Y-87087240D01*
X129481000Y-87392760D01*
X129421396Y-87692410D01*
X129304479Y-87974674D01*
X129134741Y-88228705D01*
X128918705Y-88444741D01*
X128664674Y-88614479D01*
X128382410Y-88731396D01*
X128232585Y-88761198D01*
X128082761Y-88791000D01*
X127777239Y-88791000D01*
X127627415Y-88761198D01*
X127477590Y-88731396D01*
X127195326Y-88614479D01*
X126941295Y-88444741D01*
X126725259Y-88228705D01*
X126555521Y-87974674D01*
X126438604Y-87692410D01*
X126379000Y-87392760D01*
X126379000Y-87087240D01*
X126438604Y-86787590D01*
X126555521Y-86505326D01*
X126725259Y-86251295D01*
X126941295Y-86035259D01*
X127195326Y-85865521D01*
X127477590Y-85748604D01*
X127627415Y-85718802D01*
X127777239Y-85689000D01*
X128082761Y-85689000D01*
X128232585Y-85718802D01*
X128232585Y-85718802D01*
G37*
G36*
X165372585Y-85718802D02*
G01*
X165522410Y-85748604D01*
X165804674Y-85865521D01*
X166058705Y-86035259D01*
X166274741Y-86251295D01*
X166444479Y-86505326D01*
X166561396Y-86787590D01*
X166621000Y-87087240D01*
X166621000Y-87392760D01*
X166561396Y-87692410D01*
X166444479Y-87974674D01*
X166274741Y-88228705D01*
X166058705Y-88444741D01*
X165804674Y-88614479D01*
X165522410Y-88731396D01*
X165372585Y-88761198D01*
X165222761Y-88791000D01*
X164917239Y-88791000D01*
X164767415Y-88761198D01*
X164617590Y-88731396D01*
X164335326Y-88614479D01*
X164081295Y-88444741D01*
X163865259Y-88228705D01*
X163695521Y-87974674D01*
X163578604Y-87692410D01*
X163519000Y-87392760D01*
X163519000Y-87087240D01*
X163578604Y-86787590D01*
X163695521Y-86505326D01*
X163865259Y-86251295D01*
X164081295Y-86035259D01*
X164335326Y-85865521D01*
X164617590Y-85748604D01*
X164767415Y-85718802D01*
X164917239Y-85689000D01*
X165222761Y-85689000D01*
X165372585Y-85718802D01*
X165372585Y-85718802D01*
G37*
M02*
