G04 #@! TF.GenerationSoftware,KiCad,Pcbnew,(5.1.2)-2*
G04 #@! TF.CreationDate,2019-06-15T14:58:01+10:00*
G04 #@! TF.ProjectId,USBResetter,55534252-6573-4657-9474-65722e6b6963,rev?*
G04 #@! TF.SameCoordinates,Original*
G04 #@! TF.FileFunction,Legend,Top*
G04 #@! TF.FilePolarity,Positive*
%FSLAX46Y46*%
G04 Gerber Fmt 4.6, Leading zero omitted, Abs format (unit mm)*
G04 Created by KiCad (PCBNEW (5.1.2)-2) date 2019-06-15 14:58:01*
%MOMM*%
%LPD*%
G04 APERTURE LIST*
%ADD10C,0.100000*%
%ADD11C,0.300000*%
%ADD12C,0.120000*%
%ADD13C,0.150000*%
G04 APERTURE END LIST*
D10*
X155014285Y-101716666D02*
X154814285Y-101383333D01*
X154671428Y-101716666D02*
X154671428Y-101016666D01*
X154900000Y-101016666D01*
X154957142Y-101050000D01*
X154985714Y-101083333D01*
X155014285Y-101150000D01*
X155014285Y-101250000D01*
X154985714Y-101316666D01*
X154957142Y-101350000D01*
X154900000Y-101383333D01*
X154671428Y-101383333D01*
X155500000Y-101683333D02*
X155442857Y-101716666D01*
X155328571Y-101716666D01*
X155271428Y-101683333D01*
X155242857Y-101616666D01*
X155242857Y-101350000D01*
X155271428Y-101283333D01*
X155328571Y-101250000D01*
X155442857Y-101250000D01*
X155500000Y-101283333D01*
X155528571Y-101350000D01*
X155528571Y-101416666D01*
X155242857Y-101483333D01*
X155728571Y-101250000D02*
X155871428Y-101716666D01*
X156014285Y-101250000D01*
X156671428Y-101516666D02*
X156957142Y-101516666D01*
X156614285Y-101716666D02*
X156814285Y-101016666D01*
X157014285Y-101716666D01*
D11*
X142328571Y-101578571D02*
X142328571Y-102792857D01*
X142400000Y-102935714D01*
X142471428Y-103007142D01*
X142614285Y-103078571D01*
X142900000Y-103078571D01*
X143042857Y-103007142D01*
X143114285Y-102935714D01*
X143185714Y-102792857D01*
X143185714Y-101578571D01*
X143828571Y-103007142D02*
X144042857Y-103078571D01*
X144400000Y-103078571D01*
X144542857Y-103007142D01*
X144614285Y-102935714D01*
X144685714Y-102792857D01*
X144685714Y-102650000D01*
X144614285Y-102507142D01*
X144542857Y-102435714D01*
X144400000Y-102364285D01*
X144114285Y-102292857D01*
X143971428Y-102221428D01*
X143900000Y-102150000D01*
X143828571Y-102007142D01*
X143828571Y-101864285D01*
X143900000Y-101721428D01*
X143971428Y-101650000D01*
X144114285Y-101578571D01*
X144471428Y-101578571D01*
X144685714Y-101650000D01*
X145828571Y-102292857D02*
X146042857Y-102364285D01*
X146114285Y-102435714D01*
X146185714Y-102578571D01*
X146185714Y-102792857D01*
X146114285Y-102935714D01*
X146042857Y-103007142D01*
X145900000Y-103078571D01*
X145328571Y-103078571D01*
X145328571Y-101578571D01*
X145828571Y-101578571D01*
X145971428Y-101650000D01*
X146042857Y-101721428D01*
X146114285Y-101864285D01*
X146114285Y-102007142D01*
X146042857Y-102150000D01*
X145971428Y-102221428D01*
X145828571Y-102292857D01*
X145328571Y-102292857D01*
X148828571Y-103078571D02*
X148328571Y-102364285D01*
X147971428Y-103078571D02*
X147971428Y-101578571D01*
X148542857Y-101578571D01*
X148685714Y-101650000D01*
X148757142Y-101721428D01*
X148828571Y-101864285D01*
X148828571Y-102078571D01*
X148757142Y-102221428D01*
X148685714Y-102292857D01*
X148542857Y-102364285D01*
X147971428Y-102364285D01*
X150042857Y-103007142D02*
X149900000Y-103078571D01*
X149614285Y-103078571D01*
X149471428Y-103007142D01*
X149400000Y-102864285D01*
X149400000Y-102292857D01*
X149471428Y-102150000D01*
X149614285Y-102078571D01*
X149900000Y-102078571D01*
X150042857Y-102150000D01*
X150114285Y-102292857D01*
X150114285Y-102435714D01*
X149400000Y-102578571D01*
X150685714Y-103007142D02*
X150828571Y-103078571D01*
X151114285Y-103078571D01*
X151257142Y-103007142D01*
X151328571Y-102864285D01*
X151328571Y-102792857D01*
X151257142Y-102650000D01*
X151114285Y-102578571D01*
X150900000Y-102578571D01*
X150757142Y-102507142D01*
X150685714Y-102364285D01*
X150685714Y-102292857D01*
X150757142Y-102150000D01*
X150900000Y-102078571D01*
X151114285Y-102078571D01*
X151257142Y-102150000D01*
X152542857Y-103007142D02*
X152400000Y-103078571D01*
X152114285Y-103078571D01*
X151971428Y-103007142D01*
X151900000Y-102864285D01*
X151900000Y-102292857D01*
X151971428Y-102150000D01*
X152114285Y-102078571D01*
X152400000Y-102078571D01*
X152542857Y-102150000D01*
X152614285Y-102292857D01*
X152614285Y-102435714D01*
X151900000Y-102578571D01*
X153042857Y-102078571D02*
X153614285Y-102078571D01*
X153257142Y-101578571D02*
X153257142Y-102864285D01*
X153328571Y-103007142D01*
X153471428Y-103078571D01*
X153614285Y-103078571D01*
X153900000Y-102078571D02*
X154471428Y-102078571D01*
X154114285Y-101578571D02*
X154114285Y-102864285D01*
X154185714Y-103007142D01*
X154328571Y-103078571D01*
X154471428Y-103078571D01*
X155542857Y-103007142D02*
X155400000Y-103078571D01*
X155114285Y-103078571D01*
X154971428Y-103007142D01*
X154900000Y-102864285D01*
X154900000Y-102292857D01*
X154971428Y-102150000D01*
X155114285Y-102078571D01*
X155400000Y-102078571D01*
X155542857Y-102150000D01*
X155614285Y-102292857D01*
X155614285Y-102435714D01*
X154900000Y-102578571D01*
X156257142Y-103078571D02*
X156257142Y-102078571D01*
X156257142Y-102364285D02*
X156328571Y-102221428D01*
X156400000Y-102150000D01*
X156542857Y-102078571D01*
X156685714Y-102078571D01*
D12*
X134750000Y-85750000D02*
X138800000Y-85750000D01*
X134750000Y-87450000D02*
X138800000Y-87450000D01*
X134700000Y-85750000D02*
X134700000Y-87450000D01*
X153500000Y-85750000D02*
X153500000Y-87450000D01*
X153550000Y-87450000D02*
X157600000Y-87450000D01*
X153550000Y-85750000D02*
X157600000Y-85750000D01*
X131740000Y-101850000D02*
X129410000Y-101850000D01*
X131740000Y-86860000D02*
X129620000Y-86860000D01*
X131740000Y-101850000D02*
X131740000Y-86860000D01*
X117650000Y-101850000D02*
X117650000Y-86860000D01*
X126450000Y-101850000D02*
X117650000Y-101850000D01*
X126250000Y-86860000D02*
X117650000Y-86860000D01*
X135870000Y-97070000D02*
X137200000Y-97070000D01*
X135870000Y-98400000D02*
X135870000Y-97070000D01*
X135870000Y-99670000D02*
X138530000Y-99670000D01*
X138530000Y-99670000D02*
X138530000Y-102270000D01*
X135870000Y-99670000D02*
X135870000Y-102270000D01*
X135870000Y-102270000D02*
X138530000Y-102270000D01*
X166750000Y-101340000D02*
X175350000Y-101340000D01*
X166550000Y-86350000D02*
X175350000Y-86350000D01*
X175350000Y-86350000D02*
X175350000Y-101340000D01*
X161260000Y-86350000D02*
X161260000Y-101340000D01*
X161260000Y-101340000D02*
X163380000Y-101340000D01*
X161260000Y-86350000D02*
X163590000Y-86350000D01*
X155960000Y-94780000D02*
X154500000Y-94780000D01*
X155960000Y-91620000D02*
X153800000Y-91620000D01*
X155960000Y-91620000D02*
X155960000Y-92550000D01*
X155960000Y-94780000D02*
X155960000Y-93850000D01*
X137520000Y-91800000D02*
X137520000Y-90600000D01*
X139280000Y-90600000D02*
X139280000Y-91800000D01*
X134320000Y-91800000D02*
X134320000Y-90600000D01*
X136080000Y-90600000D02*
X136080000Y-91800000D01*
X157800000Y-89120000D02*
X159000000Y-89120000D01*
X159000000Y-90880000D02*
X157800000Y-90880000D01*
X155600000Y-90880000D02*
X154400000Y-90880000D01*
X154400000Y-89120000D02*
X155600000Y-89120000D01*
X143450000Y-85950000D02*
X143450000Y-85500000D01*
X149750000Y-85500000D02*
X149750000Y-85950000D01*
X143450000Y-85500000D02*
X149750000Y-85500000D01*
X149750000Y-87250000D02*
X149750000Y-89950000D01*
X143450000Y-89950000D02*
X143450000Y-87250000D01*
X149750000Y-91700000D02*
X149750000Y-91300000D01*
X143450000Y-91700000D02*
X149750000Y-91700000D01*
X143450000Y-91250000D02*
X143450000Y-91700000D01*
X149150000Y-98820000D02*
X149150000Y-97580000D01*
X144450000Y-98820000D02*
X144450000Y-97580000D01*
X144450000Y-96250000D02*
X144450000Y-95900000D01*
X144450000Y-95900000D02*
X149150000Y-95900000D01*
X149150000Y-95900000D02*
X149150000Y-96250000D01*
X144450000Y-96250000D02*
X143200000Y-96250000D01*
X144450000Y-100150000D02*
X144450000Y-100500000D01*
X144450000Y-100500000D02*
X149150000Y-100500000D01*
X149150000Y-100500000D02*
X149150000Y-100150000D01*
D13*
X135995238Y-85252380D02*
X135661904Y-84776190D01*
X135423809Y-85252380D02*
X135423809Y-84252380D01*
X135804761Y-84252380D01*
X135900000Y-84300000D01*
X135947619Y-84347619D01*
X135995238Y-84442857D01*
X135995238Y-84585714D01*
X135947619Y-84680952D01*
X135900000Y-84728571D01*
X135804761Y-84776190D01*
X135423809Y-84776190D01*
X136804761Y-85204761D02*
X136709523Y-85252380D01*
X136519047Y-85252380D01*
X136423809Y-85204761D01*
X136376190Y-85109523D01*
X136376190Y-84728571D01*
X136423809Y-84633333D01*
X136519047Y-84585714D01*
X136709523Y-84585714D01*
X136804761Y-84633333D01*
X136852380Y-84728571D01*
X136852380Y-84823809D01*
X136376190Y-84919047D01*
X137709523Y-85252380D02*
X137709523Y-84728571D01*
X137661904Y-84633333D01*
X137566666Y-84585714D01*
X137376190Y-84585714D01*
X137280952Y-84633333D01*
X137709523Y-85204761D02*
X137614285Y-85252380D01*
X137376190Y-85252380D01*
X137280952Y-85204761D01*
X137233333Y-85109523D01*
X137233333Y-85014285D01*
X137280952Y-84919047D01*
X137376190Y-84871428D01*
X137614285Y-84871428D01*
X137709523Y-84823809D01*
X138614285Y-85252380D02*
X138614285Y-84252380D01*
X138614285Y-85204761D02*
X138519047Y-85252380D01*
X138328571Y-85252380D01*
X138233333Y-85204761D01*
X138185714Y-85157142D01*
X138138095Y-85061904D01*
X138138095Y-84776190D01*
X138185714Y-84680952D01*
X138233333Y-84633333D01*
X138328571Y-84585714D01*
X138519047Y-84585714D01*
X138614285Y-84633333D01*
X138995238Y-84585714D02*
X139233333Y-85252380D01*
X139471428Y-84585714D02*
X139233333Y-85252380D01*
X139138095Y-85490476D01*
X139090476Y-85538095D01*
X138995238Y-85585714D01*
X153580952Y-84452380D02*
X153580952Y-85261904D01*
X153628571Y-85357142D01*
X153676190Y-85404761D01*
X153771428Y-85452380D01*
X153961904Y-85452380D01*
X154057142Y-85404761D01*
X154104761Y-85357142D01*
X154152380Y-85261904D01*
X154152380Y-84452380D01*
X154580952Y-85404761D02*
X154723809Y-85452380D01*
X154961904Y-85452380D01*
X155057142Y-85404761D01*
X155104761Y-85357142D01*
X155152380Y-85261904D01*
X155152380Y-85166666D01*
X155104761Y-85071428D01*
X155057142Y-85023809D01*
X154961904Y-84976190D01*
X154771428Y-84928571D01*
X154676190Y-84880952D01*
X154628571Y-84833333D01*
X154580952Y-84738095D01*
X154580952Y-84642857D01*
X154628571Y-84547619D01*
X154676190Y-84500000D01*
X154771428Y-84452380D01*
X155009523Y-84452380D01*
X155152380Y-84500000D01*
X155914285Y-84928571D02*
X156057142Y-84976190D01*
X156104761Y-85023809D01*
X156152380Y-85119047D01*
X156152380Y-85261904D01*
X156104761Y-85357142D01*
X156057142Y-85404761D01*
X155961904Y-85452380D01*
X155580952Y-85452380D01*
X155580952Y-84452380D01*
X155914285Y-84452380D01*
X156009523Y-84500000D01*
X156057142Y-84547619D01*
X156104761Y-84642857D01*
X156104761Y-84738095D01*
X156057142Y-84833333D01*
X156009523Y-84880952D01*
X155914285Y-84928571D01*
X155580952Y-84928571D01*
X157533333Y-84452380D02*
X157723809Y-84452380D01*
X157819047Y-84500000D01*
X157914285Y-84595238D01*
X157961904Y-84785714D01*
X157961904Y-85119047D01*
X157914285Y-85309523D01*
X157819047Y-85404761D01*
X157723809Y-85452380D01*
X157533333Y-85452380D01*
X157438095Y-85404761D01*
X157342857Y-85309523D01*
X157295238Y-85119047D01*
X157295238Y-84785714D01*
X157342857Y-84595238D01*
X157438095Y-84500000D01*
X157533333Y-84452380D01*
X158390476Y-84785714D02*
X158390476Y-85452380D01*
X158390476Y-84880952D02*
X158438095Y-84833333D01*
X158533333Y-84785714D01*
X158676190Y-84785714D01*
X158771428Y-84833333D01*
X158819047Y-84928571D01*
X158819047Y-85452380D01*
X125652380Y-96973333D02*
X126461904Y-96973333D01*
X126557142Y-96925714D01*
X126604761Y-96878095D01*
X126652380Y-96782857D01*
X126652380Y-96592380D01*
X126604761Y-96497142D01*
X126557142Y-96449523D01*
X126461904Y-96401904D01*
X125652380Y-96401904D01*
X126604761Y-95973333D02*
X126652380Y-95830476D01*
X126652380Y-95592380D01*
X126604761Y-95497142D01*
X126557142Y-95449523D01*
X126461904Y-95401904D01*
X126366666Y-95401904D01*
X126271428Y-95449523D01*
X126223809Y-95497142D01*
X126176190Y-95592380D01*
X126128571Y-95782857D01*
X126080952Y-95878095D01*
X126033333Y-95925714D01*
X125938095Y-95973333D01*
X125842857Y-95973333D01*
X125747619Y-95925714D01*
X125700000Y-95878095D01*
X125652380Y-95782857D01*
X125652380Y-95544761D01*
X125700000Y-95401904D01*
X126128571Y-94640000D02*
X126176190Y-94497142D01*
X126223809Y-94449523D01*
X126319047Y-94401904D01*
X126461904Y-94401904D01*
X126557142Y-94449523D01*
X126604761Y-94497142D01*
X126652380Y-94592380D01*
X126652380Y-94973333D01*
X125652380Y-94973333D01*
X125652380Y-94640000D01*
X125700000Y-94544761D01*
X125747619Y-94497142D01*
X125842857Y-94449523D01*
X125938095Y-94449523D01*
X126033333Y-94497142D01*
X126080952Y-94544761D01*
X126128571Y-94640000D01*
X126128571Y-94973333D01*
X126652380Y-93211428D02*
X125652380Y-93211428D01*
X125985714Y-92735238D02*
X126652380Y-92735238D01*
X126080952Y-92735238D02*
X126033333Y-92687619D01*
X125985714Y-92592380D01*
X125985714Y-92449523D01*
X126033333Y-92354285D01*
X126128571Y-92306666D01*
X126652380Y-92306666D01*
X134580952Y-95452380D02*
X134580952Y-96261904D01*
X134628571Y-96357142D01*
X134676190Y-96404761D01*
X134771428Y-96452380D01*
X134961904Y-96452380D01*
X135057142Y-96404761D01*
X135104761Y-96357142D01*
X135152380Y-96261904D01*
X135152380Y-95452380D01*
X135580952Y-96404761D02*
X135723809Y-96452380D01*
X135961904Y-96452380D01*
X136057142Y-96404761D01*
X136104761Y-96357142D01*
X136152380Y-96261904D01*
X136152380Y-96166666D01*
X136104761Y-96071428D01*
X136057142Y-96023809D01*
X135961904Y-95976190D01*
X135771428Y-95928571D01*
X135676190Y-95880952D01*
X135628571Y-95833333D01*
X135580952Y-95738095D01*
X135580952Y-95642857D01*
X135628571Y-95547619D01*
X135676190Y-95500000D01*
X135771428Y-95452380D01*
X136009523Y-95452380D01*
X136152380Y-95500000D01*
X136914285Y-95928571D02*
X137057142Y-95976190D01*
X137104761Y-96023809D01*
X137152380Y-96119047D01*
X137152380Y-96261904D01*
X137104761Y-96357142D01*
X137057142Y-96404761D01*
X136961904Y-96452380D01*
X136580952Y-96452380D01*
X136580952Y-95452380D01*
X136914285Y-95452380D01*
X137009523Y-95500000D01*
X137057142Y-95547619D01*
X137104761Y-95642857D01*
X137104761Y-95738095D01*
X137057142Y-95833333D01*
X137009523Y-95880952D01*
X136914285Y-95928571D01*
X136580952Y-95928571D01*
X138533333Y-95452380D02*
X138723809Y-95452380D01*
X138819047Y-95500000D01*
X138914285Y-95595238D01*
X138961904Y-95785714D01*
X138961904Y-96119047D01*
X138914285Y-96309523D01*
X138819047Y-96404761D01*
X138723809Y-96452380D01*
X138533333Y-96452380D01*
X138438095Y-96404761D01*
X138342857Y-96309523D01*
X138295238Y-96119047D01*
X138295238Y-95785714D01*
X138342857Y-95595238D01*
X138438095Y-95500000D01*
X138533333Y-95452380D01*
X139390476Y-95785714D02*
X139390476Y-96452380D01*
X139390476Y-95880952D02*
X139438095Y-95833333D01*
X139533333Y-95785714D01*
X139676190Y-95785714D01*
X139771428Y-95833333D01*
X139819047Y-95928571D01*
X139819047Y-96452380D01*
X166052380Y-97104761D02*
X166861904Y-97104761D01*
X166957142Y-97057142D01*
X167004761Y-97009523D01*
X167052380Y-96914285D01*
X167052380Y-96723809D01*
X167004761Y-96628571D01*
X166957142Y-96580952D01*
X166861904Y-96533333D01*
X166052380Y-96533333D01*
X167004761Y-96104761D02*
X167052380Y-95961904D01*
X167052380Y-95723809D01*
X167004761Y-95628571D01*
X166957142Y-95580952D01*
X166861904Y-95533333D01*
X166766666Y-95533333D01*
X166671428Y-95580952D01*
X166623809Y-95628571D01*
X166576190Y-95723809D01*
X166528571Y-95914285D01*
X166480952Y-96009523D01*
X166433333Y-96057142D01*
X166338095Y-96104761D01*
X166242857Y-96104761D01*
X166147619Y-96057142D01*
X166100000Y-96009523D01*
X166052380Y-95914285D01*
X166052380Y-95676190D01*
X166100000Y-95533333D01*
X166528571Y-94771428D02*
X166576190Y-94628571D01*
X166623809Y-94580952D01*
X166719047Y-94533333D01*
X166861904Y-94533333D01*
X166957142Y-94580952D01*
X167004761Y-94628571D01*
X167052380Y-94723809D01*
X167052380Y-95104761D01*
X166052380Y-95104761D01*
X166052380Y-94771428D01*
X166100000Y-94676190D01*
X166147619Y-94628571D01*
X166242857Y-94580952D01*
X166338095Y-94580952D01*
X166433333Y-94628571D01*
X166480952Y-94676190D01*
X166528571Y-94771428D01*
X166528571Y-95104761D01*
X166052380Y-93152380D02*
X166052380Y-92961904D01*
X166100000Y-92866666D01*
X166195238Y-92771428D01*
X166385714Y-92723809D01*
X166719047Y-92723809D01*
X166909523Y-92771428D01*
X167004761Y-92866666D01*
X167052380Y-92961904D01*
X167052380Y-93152380D01*
X167004761Y-93247619D01*
X166909523Y-93342857D01*
X166719047Y-93390476D01*
X166385714Y-93390476D01*
X166195238Y-93342857D01*
X166100000Y-93247619D01*
X166052380Y-93152380D01*
X166385714Y-91866666D02*
X167052380Y-91866666D01*
X166385714Y-92295238D02*
X166909523Y-92295238D01*
X167004761Y-92247619D01*
X167052380Y-92152380D01*
X167052380Y-92009523D01*
X167004761Y-91914285D01*
X166957142Y-91866666D01*
X166385714Y-91533333D02*
X166385714Y-91152380D01*
X166052380Y-91390476D02*
X166909523Y-91390476D01*
X167004761Y-91342857D01*
X167052380Y-91247619D01*
X167052380Y-91152380D01*
X144576190Y-92528571D02*
X144719047Y-92576190D01*
X144766666Y-92623809D01*
X144814285Y-92719047D01*
X144814285Y-92861904D01*
X144766666Y-92957142D01*
X144719047Y-93004761D01*
X144623809Y-93052380D01*
X144242857Y-93052380D01*
X144242857Y-92052380D01*
X144576190Y-92052380D01*
X144671428Y-92100000D01*
X144719047Y-92147619D01*
X144766666Y-92242857D01*
X144766666Y-92338095D01*
X144719047Y-92433333D01*
X144671428Y-92480952D01*
X144576190Y-92528571D01*
X144242857Y-92528571D01*
X145147619Y-92385714D02*
X145385714Y-93052380D01*
X145623809Y-92385714D02*
X145385714Y-93052380D01*
X145290476Y-93290476D01*
X145242857Y-93338095D01*
X145147619Y-93385714D01*
X146004761Y-92385714D02*
X146004761Y-93385714D01*
X146004761Y-92433333D02*
X146100000Y-92385714D01*
X146290476Y-92385714D01*
X146385714Y-92433333D01*
X146433333Y-92480952D01*
X146480952Y-92576190D01*
X146480952Y-92861904D01*
X146433333Y-92957142D01*
X146385714Y-93004761D01*
X146290476Y-93052380D01*
X146100000Y-93052380D01*
X146004761Y-93004761D01*
X147338095Y-93052380D02*
X147338095Y-92528571D01*
X147290476Y-92433333D01*
X147195238Y-92385714D01*
X147004761Y-92385714D01*
X146909523Y-92433333D01*
X147338095Y-93004761D02*
X147242857Y-93052380D01*
X147004761Y-93052380D01*
X146909523Y-93004761D01*
X146861904Y-92909523D01*
X146861904Y-92814285D01*
X146909523Y-92719047D01*
X147004761Y-92671428D01*
X147242857Y-92671428D01*
X147338095Y-92623809D01*
X147766666Y-93004761D02*
X147861904Y-93052380D01*
X148052380Y-93052380D01*
X148147619Y-93004761D01*
X148195238Y-92909523D01*
X148195238Y-92861904D01*
X148147619Y-92766666D01*
X148052380Y-92719047D01*
X147909523Y-92719047D01*
X147814285Y-92671428D01*
X147766666Y-92576190D01*
X147766666Y-92528571D01*
X147814285Y-92433333D01*
X147909523Y-92385714D01*
X148052380Y-92385714D01*
X148147619Y-92433333D01*
X148576190Y-93004761D02*
X148671428Y-93052380D01*
X148861904Y-93052380D01*
X148957142Y-93004761D01*
X149004761Y-92909523D01*
X149004761Y-92861904D01*
X148957142Y-92766666D01*
X148861904Y-92719047D01*
X148719047Y-92719047D01*
X148623809Y-92671428D01*
X148576190Y-92576190D01*
X148576190Y-92528571D01*
X148623809Y-92433333D01*
X148719047Y-92385714D01*
X148861904Y-92385714D01*
X148957142Y-92433333D01*
M02*
