G04 #@! TF.GenerationSoftware,KiCad,Pcbnew,(5.1.2)-2*
G04 #@! TF.CreationDate,2019-06-14T22:55:17+10:00*
G04 #@! TF.ProjectId,USBResetter,55534252-6573-4657-9474-65722e6b6963,rev?*
G04 #@! TF.SameCoordinates,Original*
G04 #@! TF.FileFunction,Copper,L2,Bot*
G04 #@! TF.FilePolarity,Positive*
%FSLAX46Y46*%
G04 Gerber Fmt 4.6, Leading zero omitted, Abs format (unit mm)*
G04 Created by KiCad (PCBNEW (5.1.2)-2) date 2019-06-14 22:55:17*
%MOMM*%
%LPD*%
G04 APERTURE LIST*
%ADD10C,1.500000*%
%ADD11C,3.000000*%
%ADD12O,1.700000X1.700000*%
%ADD13R,1.700000X1.700000*%
%ADD14C,0.200000*%
%ADD15C,0.254000*%
G04 APERTURE END LIST*
D10*
X130600000Y-97910000D03*
X130600000Y-95370000D03*
X130600000Y-93340000D03*
X130600000Y-90800000D03*
D11*
X127930000Y-100960000D03*
X127930000Y-87240000D03*
D12*
X137200000Y-100940000D03*
D13*
X137200000Y-98400000D03*
D11*
X165070000Y-100960000D03*
X165070000Y-87240000D03*
D10*
X162400000Y-97400000D03*
X162400000Y-94860000D03*
X162400000Y-92830000D03*
X162400000Y-90290000D03*
D14*
X130600000Y-95370000D02*
X131390000Y-94580000D01*
X131390000Y-94580000D02*
X158461800Y-94580000D01*
X158461800Y-94580000D02*
X160106800Y-96225000D01*
X160106800Y-96225000D02*
X164093200Y-96225000D01*
X164093200Y-96225000D02*
X164925000Y-95393200D01*
X164925000Y-95393200D02*
X164925000Y-94306800D01*
X163190000Y-93620000D02*
X162400000Y-92830000D01*
X164925000Y-94306800D02*
X164238200Y-93620000D01*
X164238200Y-93620000D02*
X163190000Y-93620000D01*
X131390000Y-94130000D02*
X158648200Y-94130000D01*
X130600000Y-93340000D02*
X131390000Y-94130000D01*
X158648200Y-94130000D02*
X160293200Y-95775000D01*
X160293200Y-95775000D02*
X163906800Y-95775000D01*
X163906800Y-95775000D02*
X164475000Y-95206800D01*
X164475000Y-95206800D02*
X164475000Y-94493200D01*
X163190000Y-94070000D02*
X162400000Y-94860000D01*
X164051800Y-94070000D02*
X163190000Y-94070000D01*
X164475000Y-94493200D02*
X164051800Y-94070000D01*
D15*
G36*
X167174223Y-100574441D02*
G01*
X167165334Y-100499549D01*
X167035243Y-100099617D01*
X166877214Y-99803962D01*
X166561653Y-99647952D01*
X165249605Y-100960000D01*
X166561653Y-102272048D01*
X166877214Y-102116038D01*
X167068020Y-101741255D01*
X167166034Y-101393286D01*
X167146567Y-103340000D01*
X125660000Y-103340000D01*
X125660000Y-102451653D01*
X126617952Y-102451653D01*
X126773962Y-102767214D01*
X127148745Y-102958020D01*
X127553551Y-103072044D01*
X127972824Y-103104902D01*
X128390451Y-103055334D01*
X128790383Y-102925243D01*
X129086038Y-102767214D01*
X129242048Y-102451653D01*
X163757952Y-102451653D01*
X163913962Y-102767214D01*
X164288745Y-102958020D01*
X164693551Y-103072044D01*
X165112824Y-103104902D01*
X165530451Y-103055334D01*
X165930383Y-102925243D01*
X166226038Y-102767214D01*
X166382048Y-102451653D01*
X165070000Y-101139605D01*
X163757952Y-102451653D01*
X129242048Y-102451653D01*
X127930000Y-101139605D01*
X126617952Y-102451653D01*
X125660000Y-102451653D01*
X125660000Y-101002824D01*
X125785098Y-101002824D01*
X125834666Y-101420451D01*
X125964757Y-101820383D01*
X126122786Y-102116038D01*
X126438347Y-102272048D01*
X127750395Y-100960000D01*
X128109605Y-100960000D01*
X129421653Y-102272048D01*
X129737214Y-102116038D01*
X129928020Y-101741255D01*
X130042044Y-101336449D01*
X130073113Y-100940000D01*
X135707815Y-100940000D01*
X135736487Y-101231111D01*
X135821401Y-101511034D01*
X135959294Y-101769014D01*
X136144866Y-101995134D01*
X136370986Y-102180706D01*
X136628966Y-102318599D01*
X136908889Y-102403513D01*
X137127050Y-102425000D01*
X137272950Y-102425000D01*
X137491111Y-102403513D01*
X137771034Y-102318599D01*
X138029014Y-102180706D01*
X138255134Y-101995134D01*
X138440706Y-101769014D01*
X138578599Y-101511034D01*
X138663513Y-101231111D01*
X138685997Y-101002824D01*
X162925098Y-101002824D01*
X162974666Y-101420451D01*
X163104757Y-101820383D01*
X163262786Y-102116038D01*
X163578347Y-102272048D01*
X164890395Y-100960000D01*
X163578347Y-99647952D01*
X163262786Y-99803962D01*
X163071980Y-100178745D01*
X162957956Y-100583551D01*
X162925098Y-101002824D01*
X138685997Y-101002824D01*
X138692185Y-100940000D01*
X138663513Y-100648889D01*
X138578599Y-100368966D01*
X138440706Y-100110986D01*
X138255134Y-99884866D01*
X138225313Y-99860393D01*
X138294180Y-99839502D01*
X138404494Y-99780537D01*
X138501185Y-99701185D01*
X138580537Y-99604494D01*
X138639502Y-99494180D01*
X138647338Y-99468347D01*
X163757952Y-99468347D01*
X165070000Y-100780395D01*
X166382048Y-99468347D01*
X166226038Y-99152786D01*
X165851255Y-98961980D01*
X165446449Y-98847956D01*
X165027176Y-98815098D01*
X164609549Y-98864666D01*
X164209617Y-98994757D01*
X163913962Y-99152786D01*
X163757952Y-99468347D01*
X138647338Y-99468347D01*
X138675812Y-99374482D01*
X138688072Y-99250000D01*
X138688072Y-97550000D01*
X138675812Y-97425518D01*
X138639502Y-97305820D01*
X138580537Y-97195506D01*
X138501185Y-97098815D01*
X138404494Y-97019463D01*
X138294180Y-96960498D01*
X138174482Y-96924188D01*
X138050000Y-96911928D01*
X136350000Y-96911928D01*
X136225518Y-96924188D01*
X136105820Y-96960498D01*
X135995506Y-97019463D01*
X135898815Y-97098815D01*
X135819463Y-97195506D01*
X135760498Y-97305820D01*
X135724188Y-97425518D01*
X135711928Y-97550000D01*
X135711928Y-99250000D01*
X135724188Y-99374482D01*
X135760498Y-99494180D01*
X135819463Y-99604494D01*
X135898815Y-99701185D01*
X135995506Y-99780537D01*
X136105820Y-99839502D01*
X136174687Y-99860393D01*
X136144866Y-99884866D01*
X135959294Y-100110986D01*
X135821401Y-100368966D01*
X135736487Y-100648889D01*
X135707815Y-100940000D01*
X130073113Y-100940000D01*
X130074902Y-100917176D01*
X130025334Y-100499549D01*
X129895243Y-100099617D01*
X129737214Y-99803962D01*
X129421653Y-99647952D01*
X128109605Y-100960000D01*
X127750395Y-100960000D01*
X126438347Y-99647952D01*
X126122786Y-99803962D01*
X125931980Y-100178745D01*
X125817956Y-100583551D01*
X125785098Y-101002824D01*
X125660000Y-101002824D01*
X125660000Y-99468347D01*
X126617952Y-99468347D01*
X127930000Y-100780395D01*
X129242048Y-99468347D01*
X129086038Y-99152786D01*
X128711255Y-98961980D01*
X128374034Y-98866993D01*
X129822612Y-98866993D01*
X129888137Y-99105860D01*
X130135116Y-99221760D01*
X130399960Y-99287250D01*
X130672492Y-99299812D01*
X130942238Y-99258965D01*
X131198832Y-99166277D01*
X131311863Y-99105860D01*
X131377388Y-98866993D01*
X130600000Y-98089605D01*
X129822612Y-98866993D01*
X128374034Y-98866993D01*
X128306449Y-98847956D01*
X127887176Y-98815098D01*
X127469549Y-98864666D01*
X127069617Y-98994757D01*
X126773962Y-99152786D01*
X126617952Y-99468347D01*
X125660000Y-99468347D01*
X125660000Y-97982492D01*
X129210188Y-97982492D01*
X129251035Y-98252238D01*
X129343723Y-98508832D01*
X129404140Y-98621863D01*
X129643007Y-98687388D01*
X130420395Y-97910000D01*
X130779605Y-97910000D01*
X131556993Y-98687388D01*
X131795860Y-98621863D01*
X131911760Y-98374884D01*
X131977250Y-98110040D01*
X131989812Y-97837508D01*
X131948965Y-97567762D01*
X131856277Y-97311168D01*
X131795860Y-97198137D01*
X131556993Y-97132612D01*
X130779605Y-97910000D01*
X130420395Y-97910000D01*
X129643007Y-97132612D01*
X129404140Y-97198137D01*
X129288240Y-97445116D01*
X129222750Y-97709960D01*
X129210188Y-97982492D01*
X125660000Y-97982492D01*
X125660000Y-90663589D01*
X129215000Y-90663589D01*
X129215000Y-90936411D01*
X129268225Y-91203989D01*
X129372629Y-91456043D01*
X129524201Y-91682886D01*
X129717114Y-91875799D01*
X129943957Y-92027371D01*
X130046873Y-92070000D01*
X129943957Y-92112629D01*
X129717114Y-92264201D01*
X129524201Y-92457114D01*
X129372629Y-92683957D01*
X129268225Y-92936011D01*
X129215000Y-93203589D01*
X129215000Y-93476411D01*
X129268225Y-93743989D01*
X129372629Y-93996043D01*
X129524201Y-94222886D01*
X129656315Y-94355000D01*
X129524201Y-94487114D01*
X129372629Y-94713957D01*
X129268225Y-94966011D01*
X129215000Y-95233589D01*
X129215000Y-95506411D01*
X129268225Y-95773989D01*
X129372629Y-96026043D01*
X129524201Y-96252886D01*
X129717114Y-96445799D01*
X129943957Y-96597371D01*
X130043279Y-96638511D01*
X130001168Y-96653723D01*
X129888137Y-96714140D01*
X129822612Y-96953007D01*
X130600000Y-97730395D01*
X131377388Y-96953007D01*
X131311863Y-96714140D01*
X131153523Y-96639836D01*
X131256043Y-96597371D01*
X131482886Y-96445799D01*
X131675799Y-96252886D01*
X131827371Y-96026043D01*
X131931775Y-95773989D01*
X131985000Y-95506411D01*
X131985000Y-95315000D01*
X158157354Y-95315000D01*
X159561546Y-96719193D01*
X159584562Y-96747238D01*
X159696480Y-96839087D01*
X159824167Y-96907337D01*
X159962715Y-96949365D01*
X160070695Y-96960000D01*
X160070704Y-96960000D01*
X160106799Y-96963555D01*
X160142894Y-96960000D01*
X161083141Y-96960000D01*
X161068225Y-96996011D01*
X161015000Y-97263589D01*
X161015000Y-97536411D01*
X161068225Y-97803989D01*
X161172629Y-98056043D01*
X161324201Y-98282886D01*
X161517114Y-98475799D01*
X161743957Y-98627371D01*
X161996011Y-98731775D01*
X162263589Y-98785000D01*
X162536411Y-98785000D01*
X162803989Y-98731775D01*
X163056043Y-98627371D01*
X163282886Y-98475799D01*
X163475799Y-98282886D01*
X163627371Y-98056043D01*
X163731775Y-97803989D01*
X163785000Y-97536411D01*
X163785000Y-97263589D01*
X163731775Y-96996011D01*
X163716859Y-96960000D01*
X164057095Y-96960000D01*
X164093200Y-96963556D01*
X164129305Y-96960000D01*
X164237285Y-96949365D01*
X164375833Y-96907337D01*
X164503520Y-96839087D01*
X164615438Y-96747238D01*
X164638458Y-96719188D01*
X165419197Y-95938450D01*
X165447237Y-95915438D01*
X165470250Y-95887397D01*
X165470253Y-95887394D01*
X165495117Y-95857097D01*
X165539087Y-95803520D01*
X165607337Y-95675833D01*
X165649365Y-95537285D01*
X165660000Y-95429305D01*
X165660000Y-95429304D01*
X165663556Y-95393200D01*
X165660000Y-95357095D01*
X165660000Y-94342905D01*
X165663556Y-94306800D01*
X165649365Y-94162715D01*
X165617528Y-94057763D01*
X165607337Y-94024167D01*
X165539087Y-93896480D01*
X165447238Y-93784562D01*
X165419193Y-93761546D01*
X164783458Y-93125812D01*
X164760438Y-93097762D01*
X164648520Y-93005913D01*
X164520833Y-92937663D01*
X164382285Y-92895635D01*
X164274305Y-92885000D01*
X164238200Y-92881444D01*
X164202095Y-92885000D01*
X163785000Y-92885000D01*
X163785000Y-92693589D01*
X163731775Y-92426011D01*
X163627371Y-92173957D01*
X163475799Y-91947114D01*
X163282886Y-91754201D01*
X163056043Y-91602629D01*
X162956721Y-91561489D01*
X162998832Y-91546277D01*
X163111863Y-91485860D01*
X163177388Y-91246993D01*
X162400000Y-90469605D01*
X161622612Y-91246993D01*
X161688137Y-91485860D01*
X161846477Y-91560164D01*
X161743957Y-91602629D01*
X161517114Y-91754201D01*
X161324201Y-91947114D01*
X161172629Y-92173957D01*
X161068225Y-92426011D01*
X161015000Y-92693589D01*
X161015000Y-92966411D01*
X161068225Y-93233989D01*
X161172629Y-93486043D01*
X161324201Y-93712886D01*
X161456315Y-93845000D01*
X161324201Y-93977114D01*
X161172629Y-94203957D01*
X161068225Y-94456011D01*
X161015000Y-94723589D01*
X161015000Y-94996411D01*
X161023670Y-95040000D01*
X160597647Y-95040000D01*
X159193458Y-93635812D01*
X159170438Y-93607762D01*
X159058520Y-93515913D01*
X158930833Y-93447663D01*
X158792285Y-93405635D01*
X158684305Y-93395000D01*
X158648200Y-93391444D01*
X158612095Y-93395000D01*
X131985000Y-93395000D01*
X131985000Y-93203589D01*
X131931775Y-92936011D01*
X131827371Y-92683957D01*
X131675799Y-92457114D01*
X131482886Y-92264201D01*
X131256043Y-92112629D01*
X131153127Y-92070000D01*
X131256043Y-92027371D01*
X131482886Y-91875799D01*
X131675799Y-91682886D01*
X131827371Y-91456043D01*
X131931775Y-91203989D01*
X131985000Y-90936411D01*
X131985000Y-90663589D01*
X131931775Y-90396011D01*
X131917892Y-90362492D01*
X161010188Y-90362492D01*
X161051035Y-90632238D01*
X161143723Y-90888832D01*
X161204140Y-91001863D01*
X161443007Y-91067388D01*
X162220395Y-90290000D01*
X162579605Y-90290000D01*
X163356993Y-91067388D01*
X163595860Y-91001863D01*
X163711760Y-90754884D01*
X163777250Y-90490040D01*
X163789812Y-90217508D01*
X163748965Y-89947762D01*
X163656277Y-89691168D01*
X163595860Y-89578137D01*
X163356993Y-89512612D01*
X162579605Y-90290000D01*
X162220395Y-90290000D01*
X161443007Y-89512612D01*
X161204140Y-89578137D01*
X161088240Y-89825116D01*
X161022750Y-90089960D01*
X161010188Y-90362492D01*
X131917892Y-90362492D01*
X131827371Y-90143957D01*
X131675799Y-89917114D01*
X131482886Y-89724201D01*
X131256043Y-89572629D01*
X131003989Y-89468225D01*
X130736411Y-89415000D01*
X130463589Y-89415000D01*
X130196011Y-89468225D01*
X129943957Y-89572629D01*
X129717114Y-89724201D01*
X129524201Y-89917114D01*
X129372629Y-90143957D01*
X129268225Y-90396011D01*
X129215000Y-90663589D01*
X125660000Y-90663589D01*
X125660000Y-88731653D01*
X126617952Y-88731653D01*
X126773962Y-89047214D01*
X127148745Y-89238020D01*
X127553551Y-89352044D01*
X127972824Y-89384902D01*
X128390451Y-89335334D01*
X128397604Y-89333007D01*
X161622612Y-89333007D01*
X162400000Y-90110395D01*
X163177388Y-89333007D01*
X163111863Y-89094140D01*
X162864884Y-88978240D01*
X162600040Y-88912750D01*
X162327508Y-88900188D01*
X162057762Y-88941035D01*
X161801168Y-89033723D01*
X161688137Y-89094140D01*
X161622612Y-89333007D01*
X128397604Y-89333007D01*
X128790383Y-89205243D01*
X129086038Y-89047214D01*
X129242048Y-88731653D01*
X163757952Y-88731653D01*
X163913962Y-89047214D01*
X164288745Y-89238020D01*
X164693551Y-89352044D01*
X165112824Y-89384902D01*
X165530451Y-89335334D01*
X165930383Y-89205243D01*
X166226038Y-89047214D01*
X166382048Y-88731653D01*
X165070000Y-87419605D01*
X163757952Y-88731653D01*
X129242048Y-88731653D01*
X127930000Y-87419605D01*
X126617952Y-88731653D01*
X125660000Y-88731653D01*
X125660000Y-87282824D01*
X125785098Y-87282824D01*
X125834666Y-87700451D01*
X125964757Y-88100383D01*
X126122786Y-88396038D01*
X126438347Y-88552048D01*
X127750395Y-87240000D01*
X128109605Y-87240000D01*
X129421653Y-88552048D01*
X129737214Y-88396038D01*
X129928020Y-88021255D01*
X130042044Y-87616449D01*
X130068189Y-87282824D01*
X162925098Y-87282824D01*
X162974666Y-87700451D01*
X163104757Y-88100383D01*
X163262786Y-88396038D01*
X163578347Y-88552048D01*
X164890395Y-87240000D01*
X165249605Y-87240000D01*
X166561653Y-88552048D01*
X166877214Y-88396038D01*
X167068020Y-88021255D01*
X167182044Y-87616449D01*
X167214902Y-87197176D01*
X167165334Y-86779549D01*
X167035243Y-86379617D01*
X166877214Y-86083962D01*
X166561653Y-85927952D01*
X165249605Y-87240000D01*
X164890395Y-87240000D01*
X163578347Y-85927952D01*
X163262786Y-86083962D01*
X163071980Y-86458745D01*
X162957956Y-86863551D01*
X162925098Y-87282824D01*
X130068189Y-87282824D01*
X130074902Y-87197176D01*
X130025334Y-86779549D01*
X129895243Y-86379617D01*
X129737214Y-86083962D01*
X129421653Y-85927952D01*
X128109605Y-87240000D01*
X127750395Y-87240000D01*
X126438347Y-85927952D01*
X126122786Y-86083962D01*
X125931980Y-86458745D01*
X125817956Y-86863551D01*
X125785098Y-87282824D01*
X125660000Y-87282824D01*
X125660000Y-85748347D01*
X126617952Y-85748347D01*
X127930000Y-87060395D01*
X129242048Y-85748347D01*
X163757952Y-85748347D01*
X165070000Y-87060395D01*
X166382048Y-85748347D01*
X166226038Y-85432786D01*
X165851255Y-85241980D01*
X165446449Y-85127956D01*
X165027176Y-85095098D01*
X164609549Y-85144666D01*
X164209617Y-85274757D01*
X163913962Y-85432786D01*
X163757952Y-85748347D01*
X129242048Y-85748347D01*
X129086038Y-85432786D01*
X128711255Y-85241980D01*
X128306449Y-85127956D01*
X127887176Y-85095098D01*
X127469549Y-85144666D01*
X127069617Y-85274757D01*
X126773962Y-85432786D01*
X126617952Y-85748347D01*
X125660000Y-85748347D01*
X125660000Y-84660000D01*
X167333368Y-84660000D01*
X167174223Y-100574441D01*
X167174223Y-100574441D01*
G37*
X167174223Y-100574441D02*
X167165334Y-100499549D01*
X167035243Y-100099617D01*
X166877214Y-99803962D01*
X166561653Y-99647952D01*
X165249605Y-100960000D01*
X166561653Y-102272048D01*
X166877214Y-102116038D01*
X167068020Y-101741255D01*
X167166034Y-101393286D01*
X167146567Y-103340000D01*
X125660000Y-103340000D01*
X125660000Y-102451653D01*
X126617952Y-102451653D01*
X126773962Y-102767214D01*
X127148745Y-102958020D01*
X127553551Y-103072044D01*
X127972824Y-103104902D01*
X128390451Y-103055334D01*
X128790383Y-102925243D01*
X129086038Y-102767214D01*
X129242048Y-102451653D01*
X163757952Y-102451653D01*
X163913962Y-102767214D01*
X164288745Y-102958020D01*
X164693551Y-103072044D01*
X165112824Y-103104902D01*
X165530451Y-103055334D01*
X165930383Y-102925243D01*
X166226038Y-102767214D01*
X166382048Y-102451653D01*
X165070000Y-101139605D01*
X163757952Y-102451653D01*
X129242048Y-102451653D01*
X127930000Y-101139605D01*
X126617952Y-102451653D01*
X125660000Y-102451653D01*
X125660000Y-101002824D01*
X125785098Y-101002824D01*
X125834666Y-101420451D01*
X125964757Y-101820383D01*
X126122786Y-102116038D01*
X126438347Y-102272048D01*
X127750395Y-100960000D01*
X128109605Y-100960000D01*
X129421653Y-102272048D01*
X129737214Y-102116038D01*
X129928020Y-101741255D01*
X130042044Y-101336449D01*
X130073113Y-100940000D01*
X135707815Y-100940000D01*
X135736487Y-101231111D01*
X135821401Y-101511034D01*
X135959294Y-101769014D01*
X136144866Y-101995134D01*
X136370986Y-102180706D01*
X136628966Y-102318599D01*
X136908889Y-102403513D01*
X137127050Y-102425000D01*
X137272950Y-102425000D01*
X137491111Y-102403513D01*
X137771034Y-102318599D01*
X138029014Y-102180706D01*
X138255134Y-101995134D01*
X138440706Y-101769014D01*
X138578599Y-101511034D01*
X138663513Y-101231111D01*
X138685997Y-101002824D01*
X162925098Y-101002824D01*
X162974666Y-101420451D01*
X163104757Y-101820383D01*
X163262786Y-102116038D01*
X163578347Y-102272048D01*
X164890395Y-100960000D01*
X163578347Y-99647952D01*
X163262786Y-99803962D01*
X163071980Y-100178745D01*
X162957956Y-100583551D01*
X162925098Y-101002824D01*
X138685997Y-101002824D01*
X138692185Y-100940000D01*
X138663513Y-100648889D01*
X138578599Y-100368966D01*
X138440706Y-100110986D01*
X138255134Y-99884866D01*
X138225313Y-99860393D01*
X138294180Y-99839502D01*
X138404494Y-99780537D01*
X138501185Y-99701185D01*
X138580537Y-99604494D01*
X138639502Y-99494180D01*
X138647338Y-99468347D01*
X163757952Y-99468347D01*
X165070000Y-100780395D01*
X166382048Y-99468347D01*
X166226038Y-99152786D01*
X165851255Y-98961980D01*
X165446449Y-98847956D01*
X165027176Y-98815098D01*
X164609549Y-98864666D01*
X164209617Y-98994757D01*
X163913962Y-99152786D01*
X163757952Y-99468347D01*
X138647338Y-99468347D01*
X138675812Y-99374482D01*
X138688072Y-99250000D01*
X138688072Y-97550000D01*
X138675812Y-97425518D01*
X138639502Y-97305820D01*
X138580537Y-97195506D01*
X138501185Y-97098815D01*
X138404494Y-97019463D01*
X138294180Y-96960498D01*
X138174482Y-96924188D01*
X138050000Y-96911928D01*
X136350000Y-96911928D01*
X136225518Y-96924188D01*
X136105820Y-96960498D01*
X135995506Y-97019463D01*
X135898815Y-97098815D01*
X135819463Y-97195506D01*
X135760498Y-97305820D01*
X135724188Y-97425518D01*
X135711928Y-97550000D01*
X135711928Y-99250000D01*
X135724188Y-99374482D01*
X135760498Y-99494180D01*
X135819463Y-99604494D01*
X135898815Y-99701185D01*
X135995506Y-99780537D01*
X136105820Y-99839502D01*
X136174687Y-99860393D01*
X136144866Y-99884866D01*
X135959294Y-100110986D01*
X135821401Y-100368966D01*
X135736487Y-100648889D01*
X135707815Y-100940000D01*
X130073113Y-100940000D01*
X130074902Y-100917176D01*
X130025334Y-100499549D01*
X129895243Y-100099617D01*
X129737214Y-99803962D01*
X129421653Y-99647952D01*
X128109605Y-100960000D01*
X127750395Y-100960000D01*
X126438347Y-99647952D01*
X126122786Y-99803962D01*
X125931980Y-100178745D01*
X125817956Y-100583551D01*
X125785098Y-101002824D01*
X125660000Y-101002824D01*
X125660000Y-99468347D01*
X126617952Y-99468347D01*
X127930000Y-100780395D01*
X129242048Y-99468347D01*
X129086038Y-99152786D01*
X128711255Y-98961980D01*
X128374034Y-98866993D01*
X129822612Y-98866993D01*
X129888137Y-99105860D01*
X130135116Y-99221760D01*
X130399960Y-99287250D01*
X130672492Y-99299812D01*
X130942238Y-99258965D01*
X131198832Y-99166277D01*
X131311863Y-99105860D01*
X131377388Y-98866993D01*
X130600000Y-98089605D01*
X129822612Y-98866993D01*
X128374034Y-98866993D01*
X128306449Y-98847956D01*
X127887176Y-98815098D01*
X127469549Y-98864666D01*
X127069617Y-98994757D01*
X126773962Y-99152786D01*
X126617952Y-99468347D01*
X125660000Y-99468347D01*
X125660000Y-97982492D01*
X129210188Y-97982492D01*
X129251035Y-98252238D01*
X129343723Y-98508832D01*
X129404140Y-98621863D01*
X129643007Y-98687388D01*
X130420395Y-97910000D01*
X130779605Y-97910000D01*
X131556993Y-98687388D01*
X131795860Y-98621863D01*
X131911760Y-98374884D01*
X131977250Y-98110040D01*
X131989812Y-97837508D01*
X131948965Y-97567762D01*
X131856277Y-97311168D01*
X131795860Y-97198137D01*
X131556993Y-97132612D01*
X130779605Y-97910000D01*
X130420395Y-97910000D01*
X129643007Y-97132612D01*
X129404140Y-97198137D01*
X129288240Y-97445116D01*
X129222750Y-97709960D01*
X129210188Y-97982492D01*
X125660000Y-97982492D01*
X125660000Y-90663589D01*
X129215000Y-90663589D01*
X129215000Y-90936411D01*
X129268225Y-91203989D01*
X129372629Y-91456043D01*
X129524201Y-91682886D01*
X129717114Y-91875799D01*
X129943957Y-92027371D01*
X130046873Y-92070000D01*
X129943957Y-92112629D01*
X129717114Y-92264201D01*
X129524201Y-92457114D01*
X129372629Y-92683957D01*
X129268225Y-92936011D01*
X129215000Y-93203589D01*
X129215000Y-93476411D01*
X129268225Y-93743989D01*
X129372629Y-93996043D01*
X129524201Y-94222886D01*
X129656315Y-94355000D01*
X129524201Y-94487114D01*
X129372629Y-94713957D01*
X129268225Y-94966011D01*
X129215000Y-95233589D01*
X129215000Y-95506411D01*
X129268225Y-95773989D01*
X129372629Y-96026043D01*
X129524201Y-96252886D01*
X129717114Y-96445799D01*
X129943957Y-96597371D01*
X130043279Y-96638511D01*
X130001168Y-96653723D01*
X129888137Y-96714140D01*
X129822612Y-96953007D01*
X130600000Y-97730395D01*
X131377388Y-96953007D01*
X131311863Y-96714140D01*
X131153523Y-96639836D01*
X131256043Y-96597371D01*
X131482886Y-96445799D01*
X131675799Y-96252886D01*
X131827371Y-96026043D01*
X131931775Y-95773989D01*
X131985000Y-95506411D01*
X131985000Y-95315000D01*
X158157354Y-95315000D01*
X159561546Y-96719193D01*
X159584562Y-96747238D01*
X159696480Y-96839087D01*
X159824167Y-96907337D01*
X159962715Y-96949365D01*
X160070695Y-96960000D01*
X160070704Y-96960000D01*
X160106799Y-96963555D01*
X160142894Y-96960000D01*
X161083141Y-96960000D01*
X161068225Y-96996011D01*
X161015000Y-97263589D01*
X161015000Y-97536411D01*
X161068225Y-97803989D01*
X161172629Y-98056043D01*
X161324201Y-98282886D01*
X161517114Y-98475799D01*
X161743957Y-98627371D01*
X161996011Y-98731775D01*
X162263589Y-98785000D01*
X162536411Y-98785000D01*
X162803989Y-98731775D01*
X163056043Y-98627371D01*
X163282886Y-98475799D01*
X163475799Y-98282886D01*
X163627371Y-98056043D01*
X163731775Y-97803989D01*
X163785000Y-97536411D01*
X163785000Y-97263589D01*
X163731775Y-96996011D01*
X163716859Y-96960000D01*
X164057095Y-96960000D01*
X164093200Y-96963556D01*
X164129305Y-96960000D01*
X164237285Y-96949365D01*
X164375833Y-96907337D01*
X164503520Y-96839087D01*
X164615438Y-96747238D01*
X164638458Y-96719188D01*
X165419197Y-95938450D01*
X165447237Y-95915438D01*
X165470250Y-95887397D01*
X165470253Y-95887394D01*
X165495117Y-95857097D01*
X165539087Y-95803520D01*
X165607337Y-95675833D01*
X165649365Y-95537285D01*
X165660000Y-95429305D01*
X165660000Y-95429304D01*
X165663556Y-95393200D01*
X165660000Y-95357095D01*
X165660000Y-94342905D01*
X165663556Y-94306800D01*
X165649365Y-94162715D01*
X165617528Y-94057763D01*
X165607337Y-94024167D01*
X165539087Y-93896480D01*
X165447238Y-93784562D01*
X165419193Y-93761546D01*
X164783458Y-93125812D01*
X164760438Y-93097762D01*
X164648520Y-93005913D01*
X164520833Y-92937663D01*
X164382285Y-92895635D01*
X164274305Y-92885000D01*
X164238200Y-92881444D01*
X164202095Y-92885000D01*
X163785000Y-92885000D01*
X163785000Y-92693589D01*
X163731775Y-92426011D01*
X163627371Y-92173957D01*
X163475799Y-91947114D01*
X163282886Y-91754201D01*
X163056043Y-91602629D01*
X162956721Y-91561489D01*
X162998832Y-91546277D01*
X163111863Y-91485860D01*
X163177388Y-91246993D01*
X162400000Y-90469605D01*
X161622612Y-91246993D01*
X161688137Y-91485860D01*
X161846477Y-91560164D01*
X161743957Y-91602629D01*
X161517114Y-91754201D01*
X161324201Y-91947114D01*
X161172629Y-92173957D01*
X161068225Y-92426011D01*
X161015000Y-92693589D01*
X161015000Y-92966411D01*
X161068225Y-93233989D01*
X161172629Y-93486043D01*
X161324201Y-93712886D01*
X161456315Y-93845000D01*
X161324201Y-93977114D01*
X161172629Y-94203957D01*
X161068225Y-94456011D01*
X161015000Y-94723589D01*
X161015000Y-94996411D01*
X161023670Y-95040000D01*
X160597647Y-95040000D01*
X159193458Y-93635812D01*
X159170438Y-93607762D01*
X159058520Y-93515913D01*
X158930833Y-93447663D01*
X158792285Y-93405635D01*
X158684305Y-93395000D01*
X158648200Y-93391444D01*
X158612095Y-93395000D01*
X131985000Y-93395000D01*
X131985000Y-93203589D01*
X131931775Y-92936011D01*
X131827371Y-92683957D01*
X131675799Y-92457114D01*
X131482886Y-92264201D01*
X131256043Y-92112629D01*
X131153127Y-92070000D01*
X131256043Y-92027371D01*
X131482886Y-91875799D01*
X131675799Y-91682886D01*
X131827371Y-91456043D01*
X131931775Y-91203989D01*
X131985000Y-90936411D01*
X131985000Y-90663589D01*
X131931775Y-90396011D01*
X131917892Y-90362492D01*
X161010188Y-90362492D01*
X161051035Y-90632238D01*
X161143723Y-90888832D01*
X161204140Y-91001863D01*
X161443007Y-91067388D01*
X162220395Y-90290000D01*
X162579605Y-90290000D01*
X163356993Y-91067388D01*
X163595860Y-91001863D01*
X163711760Y-90754884D01*
X163777250Y-90490040D01*
X163789812Y-90217508D01*
X163748965Y-89947762D01*
X163656277Y-89691168D01*
X163595860Y-89578137D01*
X163356993Y-89512612D01*
X162579605Y-90290000D01*
X162220395Y-90290000D01*
X161443007Y-89512612D01*
X161204140Y-89578137D01*
X161088240Y-89825116D01*
X161022750Y-90089960D01*
X161010188Y-90362492D01*
X131917892Y-90362492D01*
X131827371Y-90143957D01*
X131675799Y-89917114D01*
X131482886Y-89724201D01*
X131256043Y-89572629D01*
X131003989Y-89468225D01*
X130736411Y-89415000D01*
X130463589Y-89415000D01*
X130196011Y-89468225D01*
X129943957Y-89572629D01*
X129717114Y-89724201D01*
X129524201Y-89917114D01*
X129372629Y-90143957D01*
X129268225Y-90396011D01*
X129215000Y-90663589D01*
X125660000Y-90663589D01*
X125660000Y-88731653D01*
X126617952Y-88731653D01*
X126773962Y-89047214D01*
X127148745Y-89238020D01*
X127553551Y-89352044D01*
X127972824Y-89384902D01*
X128390451Y-89335334D01*
X128397604Y-89333007D01*
X161622612Y-89333007D01*
X162400000Y-90110395D01*
X163177388Y-89333007D01*
X163111863Y-89094140D01*
X162864884Y-88978240D01*
X162600040Y-88912750D01*
X162327508Y-88900188D01*
X162057762Y-88941035D01*
X161801168Y-89033723D01*
X161688137Y-89094140D01*
X161622612Y-89333007D01*
X128397604Y-89333007D01*
X128790383Y-89205243D01*
X129086038Y-89047214D01*
X129242048Y-88731653D01*
X163757952Y-88731653D01*
X163913962Y-89047214D01*
X164288745Y-89238020D01*
X164693551Y-89352044D01*
X165112824Y-89384902D01*
X165530451Y-89335334D01*
X165930383Y-89205243D01*
X166226038Y-89047214D01*
X166382048Y-88731653D01*
X165070000Y-87419605D01*
X163757952Y-88731653D01*
X129242048Y-88731653D01*
X127930000Y-87419605D01*
X126617952Y-88731653D01*
X125660000Y-88731653D01*
X125660000Y-87282824D01*
X125785098Y-87282824D01*
X125834666Y-87700451D01*
X125964757Y-88100383D01*
X126122786Y-88396038D01*
X126438347Y-88552048D01*
X127750395Y-87240000D01*
X128109605Y-87240000D01*
X129421653Y-88552048D01*
X129737214Y-88396038D01*
X129928020Y-88021255D01*
X130042044Y-87616449D01*
X130068189Y-87282824D01*
X162925098Y-87282824D01*
X162974666Y-87700451D01*
X163104757Y-88100383D01*
X163262786Y-88396038D01*
X163578347Y-88552048D01*
X164890395Y-87240000D01*
X165249605Y-87240000D01*
X166561653Y-88552048D01*
X166877214Y-88396038D01*
X167068020Y-88021255D01*
X167182044Y-87616449D01*
X167214902Y-87197176D01*
X167165334Y-86779549D01*
X167035243Y-86379617D01*
X166877214Y-86083962D01*
X166561653Y-85927952D01*
X165249605Y-87240000D01*
X164890395Y-87240000D01*
X163578347Y-85927952D01*
X163262786Y-86083962D01*
X163071980Y-86458745D01*
X162957956Y-86863551D01*
X162925098Y-87282824D01*
X130068189Y-87282824D01*
X130074902Y-87197176D01*
X130025334Y-86779549D01*
X129895243Y-86379617D01*
X129737214Y-86083962D01*
X129421653Y-85927952D01*
X128109605Y-87240000D01*
X127750395Y-87240000D01*
X126438347Y-85927952D01*
X126122786Y-86083962D01*
X125931980Y-86458745D01*
X125817956Y-86863551D01*
X125785098Y-87282824D01*
X125660000Y-87282824D01*
X125660000Y-85748347D01*
X126617952Y-85748347D01*
X127930000Y-87060395D01*
X129242048Y-85748347D01*
X163757952Y-85748347D01*
X165070000Y-87060395D01*
X166382048Y-85748347D01*
X166226038Y-85432786D01*
X165851255Y-85241980D01*
X165446449Y-85127956D01*
X165027176Y-85095098D01*
X164609549Y-85144666D01*
X164209617Y-85274757D01*
X163913962Y-85432786D01*
X163757952Y-85748347D01*
X129242048Y-85748347D01*
X129086038Y-85432786D01*
X128711255Y-85241980D01*
X128306449Y-85127956D01*
X127887176Y-85095098D01*
X127469549Y-85144666D01*
X127069617Y-85274757D01*
X126773962Y-85432786D01*
X126617952Y-85748347D01*
X125660000Y-85748347D01*
X125660000Y-84660000D01*
X167333368Y-84660000D01*
X167174223Y-100574441D01*
M02*
