G04 #@! TF.GenerationSoftware,KiCad,Pcbnew,(5.1.2)-2*
G04 #@! TF.CreationDate,2019-06-14T22:55:17+10:00*
G04 #@! TF.ProjectId,USBResetter,55534252-6573-4657-9474-65722e6b6963,rev?*
G04 #@! TF.SameCoordinates,Original*
G04 #@! TF.FileFunction,Legend,Bot*
G04 #@! TF.FilePolarity,Positive*
%FSLAX46Y46*%
G04 Gerber Fmt 4.6, Leading zero omitted, Abs format (unit mm)*
G04 Created by KiCad (PCBNEW (5.1.2)-2) date 2019-06-14 22:55:17*
%MOMM*%
%LPD*%
G04 APERTURE LIST*
%ADD10C,0.100000*%
G04 APERTURE END LIST*
D10*
X157161904Y-88928571D02*
X157019047Y-88976190D01*
X156971428Y-89023809D01*
X156923809Y-89119047D01*
X156923809Y-89261904D01*
X156971428Y-89357142D01*
X157019047Y-89404761D01*
X157114285Y-89452380D01*
X157495238Y-89452380D01*
X157495238Y-88452380D01*
X157161904Y-88452380D01*
X157066666Y-88500000D01*
X157019047Y-88547619D01*
X156971428Y-88642857D01*
X156971428Y-88738095D01*
X157019047Y-88833333D01*
X157066666Y-88880952D01*
X157161904Y-88928571D01*
X157495238Y-88928571D01*
X156590476Y-88785714D02*
X156352380Y-89452380D01*
X156114285Y-88785714D02*
X156352380Y-89452380D01*
X156447619Y-89690476D01*
X156495238Y-89738095D01*
X156590476Y-89785714D01*
X154780952Y-88452380D02*
X154590476Y-88452380D01*
X154495238Y-88500000D01*
X154400000Y-88595238D01*
X154352380Y-88785714D01*
X154352380Y-89119047D01*
X154400000Y-89309523D01*
X154495238Y-89404761D01*
X154590476Y-89452380D01*
X154780952Y-89452380D01*
X154876190Y-89404761D01*
X154971428Y-89309523D01*
X155019047Y-89119047D01*
X155019047Y-88785714D01*
X154971428Y-88595238D01*
X154876190Y-88500000D01*
X154780952Y-88452380D01*
X153923809Y-88785714D02*
X153923809Y-89785714D01*
X153923809Y-88833333D02*
X153828571Y-88785714D01*
X153638095Y-88785714D01*
X153542857Y-88833333D01*
X153495238Y-88880952D01*
X153447619Y-88976190D01*
X153447619Y-89261904D01*
X153495238Y-89357142D01*
X153542857Y-89404761D01*
X153638095Y-89452380D01*
X153828571Y-89452380D01*
X153923809Y-89404761D01*
X153161904Y-88785714D02*
X152780952Y-88785714D01*
X153019047Y-88452380D02*
X153019047Y-89309523D01*
X152971428Y-89404761D01*
X152876190Y-89452380D01*
X152780952Y-89452380D01*
X152304761Y-89452380D02*
X152400000Y-89404761D01*
X152447619Y-89357142D01*
X152495238Y-89261904D01*
X152495238Y-88976190D01*
X152447619Y-88880952D01*
X152400000Y-88833333D01*
X152304761Y-88785714D01*
X152161904Y-88785714D01*
X152066666Y-88833333D01*
X152019047Y-88880952D01*
X151971428Y-88976190D01*
X151971428Y-89261904D01*
X152019047Y-89357142D01*
X152066666Y-89404761D01*
X152161904Y-89452380D01*
X152304761Y-89452380D01*
X151542857Y-89452380D02*
X151542857Y-88785714D01*
X151542857Y-88452380D02*
X151590476Y-88500000D01*
X151542857Y-88547619D01*
X151495238Y-88500000D01*
X151542857Y-88452380D01*
X151542857Y-88547619D01*
X151114285Y-89404761D02*
X151019047Y-89452380D01*
X150828571Y-89452380D01*
X150733333Y-89404761D01*
X150685714Y-89309523D01*
X150685714Y-89261904D01*
X150733333Y-89166666D01*
X150828571Y-89119047D01*
X150971428Y-89119047D01*
X151066666Y-89071428D01*
X151114285Y-88976190D01*
X151114285Y-88928571D01*
X151066666Y-88833333D01*
X150971428Y-88785714D01*
X150828571Y-88785714D01*
X150733333Y-88833333D01*
X150114285Y-89452380D02*
X150209523Y-89404761D01*
X150257142Y-89357142D01*
X150304761Y-89261904D01*
X150304761Y-88976190D01*
X150257142Y-88880952D01*
X150209523Y-88833333D01*
X150114285Y-88785714D01*
X149971428Y-88785714D01*
X149876190Y-88833333D01*
X149828571Y-88880952D01*
X149780952Y-88976190D01*
X149780952Y-89261904D01*
X149828571Y-89357142D01*
X149876190Y-89404761D01*
X149971428Y-89452380D01*
X150114285Y-89452380D01*
X149209523Y-89452380D02*
X149304761Y-89404761D01*
X149352380Y-89309523D01*
X149352380Y-88452380D01*
X148400000Y-89452380D02*
X148400000Y-88928571D01*
X148447619Y-88833333D01*
X148542857Y-88785714D01*
X148733333Y-88785714D01*
X148828571Y-88833333D01*
X148400000Y-89404761D02*
X148495238Y-89452380D01*
X148733333Y-89452380D01*
X148828571Y-89404761D01*
X148876190Y-89309523D01*
X148876190Y-89214285D01*
X148828571Y-89119047D01*
X148733333Y-89071428D01*
X148495238Y-89071428D01*
X148400000Y-89023809D01*
X148066666Y-88785714D02*
X147685714Y-88785714D01*
X147923809Y-88452380D02*
X147923809Y-89309523D01*
X147876190Y-89404761D01*
X147780952Y-89452380D01*
X147685714Y-89452380D01*
X146971428Y-89404761D02*
X147066666Y-89452380D01*
X147257142Y-89452380D01*
X147352380Y-89404761D01*
X147400000Y-89309523D01*
X147400000Y-88928571D01*
X147352380Y-88833333D01*
X147257142Y-88785714D01*
X147066666Y-88785714D01*
X146971428Y-88833333D01*
X146923809Y-88928571D01*
X146923809Y-89023809D01*
X147400000Y-89119047D01*
X146066666Y-89452380D02*
X146066666Y-88452380D01*
X146066666Y-89404761D02*
X146161904Y-89452380D01*
X146352380Y-89452380D01*
X146447619Y-89404761D01*
X146495238Y-89357142D01*
X146542857Y-89261904D01*
X146542857Y-88976190D01*
X146495238Y-88880952D01*
X146447619Y-88833333D01*
X146352380Y-88785714D01*
X146161904Y-88785714D01*
X146066666Y-88833333D01*
X144828571Y-89071428D02*
X144066666Y-89071428D01*
X142542857Y-88452380D02*
X142542857Y-89166666D01*
X142590476Y-89309523D01*
X142685714Y-89404761D01*
X142828571Y-89452380D01*
X142923809Y-89452380D01*
X141638095Y-88785714D02*
X141638095Y-89452380D01*
X142066666Y-88785714D02*
X142066666Y-89309523D01*
X142019047Y-89404761D01*
X141923809Y-89452380D01*
X141780952Y-89452380D01*
X141685714Y-89404761D01*
X141638095Y-89357142D01*
X141161904Y-88785714D02*
X141161904Y-89452380D01*
X141161904Y-88880952D02*
X141114285Y-88833333D01*
X141019047Y-88785714D01*
X140876190Y-88785714D01*
X140780952Y-88833333D01*
X140733333Y-88928571D01*
X140733333Y-89452380D01*
X139876190Y-89404761D02*
X139971428Y-89452380D01*
X140161904Y-89452380D01*
X140257142Y-89404761D01*
X140304761Y-89309523D01*
X140304761Y-88928571D01*
X140257142Y-88833333D01*
X140161904Y-88785714D01*
X139971428Y-88785714D01*
X139876190Y-88833333D01*
X139828571Y-88928571D01*
X139828571Y-89023809D01*
X140304761Y-89119047D01*
X138685714Y-88547619D02*
X138638095Y-88500000D01*
X138542857Y-88452380D01*
X138304761Y-88452380D01*
X138209523Y-88500000D01*
X138161904Y-88547619D01*
X138114285Y-88642857D01*
X138114285Y-88738095D01*
X138161904Y-88880952D01*
X138733333Y-89452380D01*
X138114285Y-89452380D01*
X137495238Y-88452380D02*
X137400000Y-88452380D01*
X137304761Y-88500000D01*
X137257142Y-88547619D01*
X137209523Y-88642857D01*
X137161904Y-88833333D01*
X137161904Y-89071428D01*
X137209523Y-89261904D01*
X137257142Y-89357142D01*
X137304761Y-89404761D01*
X137400000Y-89452380D01*
X137495238Y-89452380D01*
X137590476Y-89404761D01*
X137638095Y-89357142D01*
X137685714Y-89261904D01*
X137733333Y-89071428D01*
X137733333Y-88833333D01*
X137685714Y-88642857D01*
X137638095Y-88547619D01*
X137590476Y-88500000D01*
X137495238Y-88452380D01*
X136209523Y-89452380D02*
X136780952Y-89452380D01*
X136495238Y-89452380D02*
X136495238Y-88452380D01*
X136590476Y-88595238D01*
X136685714Y-88690476D01*
X136780952Y-88738095D01*
X135733333Y-89452380D02*
X135542857Y-89452380D01*
X135447619Y-89404761D01*
X135400000Y-89357142D01*
X135304761Y-89214285D01*
X135257142Y-89023809D01*
X135257142Y-88642857D01*
X135304761Y-88547619D01*
X135352380Y-88500000D01*
X135447619Y-88452380D01*
X135638095Y-88452380D01*
X135733333Y-88500000D01*
X135780952Y-88547619D01*
X135828571Y-88642857D01*
X135828571Y-88880952D01*
X135780952Y-88976190D01*
X135733333Y-89023809D01*
X135638095Y-89071428D01*
X135447619Y-89071428D01*
X135352380Y-89023809D01*
X135304761Y-88976190D01*
X135257142Y-88880952D01*
M02*
